<?xml version="1.0" encoding="UTF-8" standalone="no"?>
<!-- Created with Inkscape (http://www.inkscape.org/) -->

<svg
   xmlns:osb="http://www.openswatchbook.org/uri/2009/osb"
   xmlns:dc="http://purl.org/dc/elements/1.1/"
   xmlns:cc="http://creativecommons.org/ns#"
   xmlns:rdf="http://www.w3.org/1999/02/22-rdf-syntax-ns#"
   xmlns:svg="http://www.w3.org/2000/svg"
   xmlns="http://www.w3.org/2000/svg"
   xmlns:xlink="http://www.w3.org/1999/xlink"
   xmlns:sodipodi="http://sodipodi.sourceforge.net/DTD/sodipodi-0.dtd"
   xmlns:inkscape="http://www.inkscape.org/namespaces/inkscape"
   width="210mm"
   height="297mm"
   viewBox="0 0 210 297"
   version="1.1"
   id="svg16"
   inkscape:version="0.92.3 (2405546, 2018-03-11)"
   sodipodi:docname="drawing.svg">
  <defs
     id="defs10">
    <pattern
       inkscape:collect="always"
       xlink:href="#Strips1_1"
       id="pattern10863"
       patternTransform="matrix(10,0,0,10,11.112501,1.5875)" />
    <linearGradient
       inkscape:collect="always"
       id="linearGradient9767">
      <stop
         style="stop-color:#008080;stop-opacity:1;"
         offset="0"
         id="stop9763" />
      <stop
         style="stop-color:#008080;stop-opacity:0;"
         offset="1"
         id="stop9765" />
    </linearGradient>
    <linearGradient
       id="linearGradient8559"
       osb:paint="solid">
      <stop
         style="stop-color:#008080;stop-opacity:1;"
         offset="0"
         id="stop8557" />
    </linearGradient>
    <linearGradient
       id="linearGradient7852"
       osb:paint="solid">
      <stop
         style="stop-color:#ff9d00;stop-opacity:1;"
         offset="0"
         id="stop7850" />
    </linearGradient>
    <linearGradient
       inkscape:collect="always"
       id="linearGradient7840"
       osb:paint="gradient">
      <stop
         style="stop-color:#ff9d00;stop-opacity:1;"
         offset="0"
         id="stop7836" />
      <stop
         style="stop-color:#ff9d00;stop-opacity:0;"
         offset="1"
         id="stop7838" />
    </linearGradient>
    <pattern
       inkscape:isstock="true"
       inkscape:stockid="Stripes 1:1"
       id="Strips1_1"
       patternTransform="translate(0,0) scale(10,10)"
       height="1"
       width="2"
       patternUnits="userSpaceOnUse"
       inkscape:collect="always">
      <rect
         id="rect5311"
         height="2"
         width="1"
         y="-0.5"
         x="0"
         style="fill:black;stroke:none" />
    </pattern>
    <linearGradient
       id="linearGradient6424"
       osb:paint="solid">
      <stop
         style="stop-color:#008000;stop-opacity:1;"
         offset="0"
         id="stop6422" />
    </linearGradient>
    <linearGradient
       inkscape:collect="always"
       id="linearGradient6175">
      <stop
         style="stop-color:#00ff00;stop-opacity:1;"
         offset="0"
         id="stop6171" />
      <stop
         style="stop-color:#00ff00;stop-opacity:0;"
         offset="1"
         id="stop6173" />
    </linearGradient>
    <linearGradient
       inkscape:collect="always"
       id="linearGradient6147">
      <stop
         style="stop-color:#ff7e00;stop-opacity:1;"
         offset="0"
         id="stop6143" />
      <stop
         style="stop-color:#ff7e00;stop-opacity:0;"
         offset="1"
         id="stop6145" />
    </linearGradient>
    <linearGradient
       id="linearGradient6117"
       osb:paint="solid">
      <stop
         style="stop-color:#ff7f00;stop-opacity:1;"
         offset="0"
         id="stop6115" />
    </linearGradient>
    <linearGradient
       id="linearGradient6075"
       osb:paint="solid">
      <stop
         style="stop-color:#00ff00;stop-opacity:1;"
         offset="0"
         id="stop6073" />
    </linearGradient>
    <linearGradient
       id="linearGradient6031"
       osb:paint="solid">
      <stop
         style="stop-color:#00ff00;stop-opacity:1;"
         offset="0"
         id="stop6029" />
    </linearGradient>
    <inkscape:perspective
       sodipodi:type="inkscape:persp3d"
       inkscape:vp_x="-8.7194056 : 142.05305 : 1"
       inkscape:vp_y="0 : 1000 : 0"
       inkscape:vp_z="201.28059 : 142.05305 : 1"
       inkscape:persp3d-origin="96.280594 : 92.553053 : 1"
       id="perspective26" />
    <linearGradient
       inkscape:collect="always"
       xlink:href="#linearGradient6147"
       id="linearGradient6153"
       x1="154.47025"
       y1="162.0625"
       x2="197.04762"
       y2="162.0625"
       gradientUnits="userSpaceOnUse"
       gradientTransform="translate(-409.73535,-201.77248)" />
    <linearGradient
       inkscape:collect="always"
       xlink:href="#linearGradient6175"
       id="linearGradient6177"
       x1="154.47024"
       y1="162.0625"
       x2="197.04762"
       y2="162.0625"
       gradientUnits="userSpaceOnUse"
       gradientTransform="translate(-409.73535,-201.77248)" />
    <linearGradient
       inkscape:collect="always"
       xlink:href="#linearGradient9767"
       id="linearGradient9769"
       x1="3.402616"
       y1="156.33624"
       x2="32.645381"
       y2="156.33624"
       gradientUnits="userSpaceOnUse"
       gradientTransform="translate(0,1.5875)" />
    <linearGradient
       gradientTransform="translate(1.4569092e-6,1.5874931)"
       inkscape:collect="always"
       xlink:href="#linearGradient9767"
       id="linearGradient8671-6"
       x1="3.402616"
       y1="156.33624"
       x2="32.645382"
       y2="156.33624"
       gradientUnits="userSpaceOnUse" />
    <linearGradient
       gradientTransform="translate(-1.1401368e-7,1.5874823)"
       inkscape:collect="always"
       xlink:href="#linearGradient9767"
       id="linearGradient8671-6-2"
       x1="3.402616"
       y1="156.33624"
       x2="32.645382"
       y2="156.33624"
       gradientUnits="userSpaceOnUse" />
    <meshgradient
       inkscape:collect="always"
       id="meshgradient10777"
       gradientUnits="userSpaceOnUse"
       x="196.48357"
       y="31.383308">
      <meshrow
         id="meshrow10779">
        <meshpatch
           id="meshpatch10781">
          <stop
             path="l 2.73775,7.88714"
             style="stop-color:#ffffff;stop-opacity:1"
             id="stop10783" />
          <stop
             path="l -4.29714,4.58801"
             style="stop-color:#ff0000;stop-opacity:1"
             id="stop10785" />
          <stop
             path="l 0,0"
             style="stop-color:#ffffff;stop-opacity:1"
             id="stop10787" />
          <stop
             path="l 1.55939,-12.4751"
             style="stop-color:#ff0000;stop-opacity:1"
             id="stop10789" />
        </meshpatch>
        <meshpatch
           id="meshpatch10791">
          <stop
             path="l 8.04931,2.21605"
             id="stop10793" />
          <stop
             path="l -12.3464,2.37196"
             style="stop-color:#ffffff;stop-opacity:1"
             id="stop10795" />
          <stop
             path="l 0,0"
             style="stop-color:#ff0000;stop-opacity:1"
             id="stop10797" />
        </meshpatch>
        <meshpatch
           id="meshpatch10799">
          <stop
             path="l -6.6551,5.04101"
             id="stop10801" />
          <stop
             path="l -5.69135,-2.66905"
             style="stop-color:#ff0000;stop-opacity:1"
             id="stop10803" />
          <stop
             path="l 0,0"
             style="stop-color:#ffffff;stop-opacity:1"
             id="stop10805" />
        </meshpatch>
        <meshpatch
           id="meshpatch10807">
          <stop
             path="l 0.379786,8.34014"
             id="stop10809" />
          <stop
             path="l -6.07113,-11.0092"
             style="stop-color:#ffffff;stop-opacity:1"
             id="stop10811" />
          <stop
             path="l 0,0"
             style="stop-color:#ff0000;stop-opacity:1"
             id="stop10813" />
        </meshpatch>
        <meshpatch
           id="meshpatch10815">
          <stop
             path="l -6.85083,-4.77162"
             id="stop10817" />
          <stop
             path="l 0.779697,-6.23757"
             style="stop-color:#ff0000;stop-opacity:1"
             id="stop10819" />
          <stop
             path="l 0,0"
             style="stop-color:#ffffff;stop-opacity:1"
             id="stop10821" />
        </meshpatch>
        <meshpatch
           id="meshpatch10823">
          <stop
             path="l -7.81459,2.93844"
             id="stop10825" />
          <stop
             path="l 8.59428,-9.17602"
             style="stop-color:#ffffff;stop-opacity:1"
             id="stop10827" />
          <stop
             path="l 0,0"
             style="stop-color:#ff0000;stop-opacity:1"
             id="stop10829" />
        </meshpatch>
        <meshpatch
           id="meshpatch10831">
          <stop
             path="l 2.42106,-7.99004"
             id="stop10833" />
          <stop
             path="l 6.17322,-1.18598"
             style="stop-color:#ff0000;stop-opacity:1"
             id="stop10835" />
          <stop
             path="l 0,0"
             style="stop-color:#ffffff;stop-opacity:1"
             id="stop10837" />
        </meshpatch>
        <meshpatch
           id="meshpatch10839">
          <stop
             path="l -5.20947,-6.52409"
             id="stop10841" />
          <stop
             path="l 11.3827,5.3381"
             style="stop-color:#ffffff;stop-opacity:1"
             id="stop10843" />
          <stop
             path="l 0,0"
             style="stop-color:#ff0000;stop-opacity:1"
             id="stop10845" />
        </meshpatch>
        <meshpatch
           id="meshpatch10847">
          <stop
             path="l 8.34713,-0.166493"
             id="stop10849" />
          <stop
             path="l 3.03557,5.5046"
             style="stop-color:#ff0000;stop-opacity:1"
             id="stop10851" />
          <stop
             path="l 0,0"
             style="stop-color:#ffffff;stop-opacity:1"
             id="stop10853" />
        </meshpatch>
        <meshpatch
           id="meshpatch10855">
          <stop
             path="l 4.59496,-6.97055"
             id="stop10857" />
          <stop
             path="l -1.55939,12.4751"
             style="stop-color:#ffffff;stop-opacity:1"
             id="stop10859" />
          <stop
             path="l 0,0"
             style="stop-color:#ff0000;stop-opacity:1"
             id="stop10861" />
        </meshpatch>
      </meshrow>
    </meshgradient>
  </defs>
  <sodipodi:namedview
     id="base"
     pagecolor="#ffffff"
     bordercolor="#666666"
     borderopacity="1.0"
     inkscape:pageopacity="0.0"
     inkscape:pageshadow="2"
     inkscape:zoom="0.509012"
     inkscape:cx="352.62166"
     inkscape:cy="703.28259"
     inkscape:document-units="mm"
     inkscape:current-layer="layer1"
     showgrid="false"
     inkscape:measure-start="290.338,815.446"
     inkscape:measure-end="216.017,809.889"
     inkscape:window-width="1280"
     inkscape:window-height="745"
     inkscape:window-x="0"
     inkscape:window-y="0"
     inkscape:window-maximized="1" />
  <metadata
     id="metadata13">
    <rdf:RDF>
      <cc:Work
         rdf:about="">
        <dc:format>image/svg+xml</dc:format>
        <dc:type
           rdf:resource="http://purl.org/dc/dcmitype/StillImage" />
        <dc:title></dc:title>
      </cc:Work>
    </rdf:RDF>
  </metadata>
  <g
     inkscape:label="Layer 1"
     inkscape:groupmode="layer"
     id="layer1">
    <rect
       id="rect18"
       width="101.29762"
       height="32.505951"
       x="28.726189"
       y="27.124998"
       style="stroke-width:0.26458332;fill:#0000ff" />
    <rect
       style="fill:#00ffff;stroke-width:0.26458332"
       id="rect20"
       width="65.767853"
       height="58.208332"
       x="89.202377"
       y="92.136902" />
    <rect
       style="fill:#000080;stroke-width:0.26458332"
       id="rect22"
       width="62.744045"
       height="60.476189"
       x="57.452377"
       y="52.827377" />
    <rect
       style="fill:#000080;stroke-width:0.26458332"
       id="rect24"
       width="52.916664"
       height="75.595238"
       x="45.357143"
       y="151.1012" />
    <g
       sodipodi:type="inkscape:box3d"
       id="g28"
       style="fill:#000080"
       inkscape:perspectiveID="#perspective26"
       inkscape:corner0="6.7165356 : 0.16646754 : 0 : 1"
       inkscape:corner7="2.4724411 : 0.43192788 : 1.3031302 : 1">
      <path
         sodipodi:type="inkscape:box3dside"
         id="path30"
         style="fill:#353564;fill-rule:evenodd;stroke:none;stroke-linejoin:round"
         inkscape:box3dsidetype="6"
         d="M -0.32401878,132.17173 V 97.770243 L 28.050144,104.93043 v 29.43129 z"
         points="-0.32401878,97.770243 28.050144,104.93043 28.050144,134.36172 -0.32401878,132.17173 " />
      <path
         sodipodi:type="inkscape:box3dside"
         id="path40"
         style="fill:#e9e9ff;fill-rule:evenodd;stroke:none;stroke-linejoin:round"
         inkscape:box3dsidetype="11"
         d="M 28.050144,134.36172 65.359319,122.83688 V 67.249747 L 28.050144,104.93043 Z"
         points="65.359319,122.83688 65.359319,67.249747 28.050144,104.93043 28.050144,134.36172 " />
      <path
         sodipodi:type="inkscape:box3dside"
         id="path38"
         style="fill:#afafde;fill-rule:evenodd;stroke:none;stroke-linejoin:round"
         inkscape:box3dsidetype="13"
         d="M -0.32401878,97.770243 16.306933,37.197488 65.359319,67.249747 28.050144,104.93043 Z"
         points="16.306933,37.197488 65.359319,67.249747 28.050144,104.93043 -0.32401878,97.770243 " />
      <path
         sodipodi:type="inkscape:box3dside"
         id="path32"
         style="fill:#4d4d9f;fill-rule:evenodd;stroke:none;stroke-linejoin:round"
         inkscape:box3dsidetype="5"
         d="M -0.32401878,132.17173 16.306933,113.64524 65.359319,122.83688 28.050144,134.36172 Z"
         points="16.306933,113.64524 65.359319,122.83688 28.050144,134.36172 -0.32401878,132.17173 " />
      <path
         sodipodi:type="inkscape:box3dside"
         id="path36"
         style="fill:#d7d7ff;fill-rule:evenodd;stroke:none;stroke-linejoin:round"
         inkscape:box3dsidetype="14"
         d="M 16.306933,113.64524 V 37.197488 l 49.052386,30.052259 v 55.587133 z"
         points="16.306933,37.197488 65.359319,67.249747 65.359319,122.83688 16.306933,113.64524 " />
      <path
         sodipodi:type="inkscape:box3dside"
         id="path34"
         style="fill:#8686bf;fill-rule:evenodd;stroke:none;stroke-linejoin:round"
         inkscape:box3dsidetype="3"
         d="M -0.32401878,132.17173 16.306933,113.64524 V 37.197488 L -0.32401878,97.770243 Z"
         points="16.306933,113.64524 16.306933,37.197488 -0.32401878,97.770243 -0.32401878,132.17173 " />
    </g>
    <ellipse
       style="fill:#000080;stroke-width:0.26458332"
       id="path42"
       cx="115.66071"
       cy="230.47615"
       rx="10.583333"
       ry="39.6875" />
    <ellipse
       style="fill:url(#linearGradient6177);fill-opacity:1;fill-rule:nonzero;stroke:url(#linearGradient6153);stroke-width:1;stroke-miterlimit:4;stroke-dasharray:0.50000001, 0.50000001;stroke-dashoffset:0;stroke-opacity:1"
       id="path44"
       cx="-233.97643"
       cy="-39.709991"
       rx="20.788691"
       ry="21.544643"
       transform="rotate(-145.80913)" />
    <path
       sodipodi:type="star"
       style="fill:#ffff00;stroke-width:0.26458332"
       id="path46"
       sodipodi:sides="5"
       sodipodi:cx="158.75"
       sodipodi:cy="219.1369"
       sodipodi:r1="23.078224"
       sodipodi:r2="11.539112"
       sodipodi:arg1="2.1224513"
       sodipodi:arg2="2.7507698"
       inkscape:flatsided="false"
       inkscape:rounded="0"
       inkscape:randomized="0"
       d="m 146.65476,238.79166 1.42622,-15.25894 -11.7614,-9.82542 14.95284,-3.35885 5.71005,-14.22199 7.81515,13.18306 15.29041,1.03575 -10.12282,11.50643 3.73995,14.86211 -14.0714,-6.07169 z"
       inkscape:transform-center-x="-1.2506008"
       inkscape:transform-center-y="-0.9802356"
       transform="rotate(14.492186,158.75,219.13691)" />
    <path
       sodipodi:type="spiral"
       style="fill:#ff0000;fill-rule:evenodd;stroke:#000000;stroke-width:0.26458332"
       id="path48"
       sodipodi:cx="37.495243"
       sodipodi:cy="269.02985"
       sodipodi:expansion="1"
       sodipodi:revolution="3"
       sodipodi:radius="22.653355"
       sodipodi:argument="-19.971628"
       sodipodi:t0="0"
       d="m 37.495243,269.02985 c 0.49273,-1.02336 1.622565,0.1593 1.700892,0.81895 0.212262,1.7876 -1.819011,2.79786 -3.338791,2.58283 -2.718529,-0.38464 -4.070039,-3.38123 -3.464777,-5.85863 0.888246,-3.63569 4.961012,-5.36986 8.378474,-4.34672 4.55494,1.36368 6.680852,6.54654 5.228662,10.89831 -1.827433,5.47626 -8.134708,7.99751 -13.418157,6.11061 -6.398964,-2.28529 -9.31741,-9.72433 -6.992547,-15.938 2.739772,-7.3226 11.314849,-10.63936 18.45784,-7.87449 8.246865,3.19215 11.962662,12.90598 8.756432,20.97768 -3.643123,9.17159 -14.497527,13.28692 -23.497523,9.63838 -10.096635,-4.09312 -14.611871,-16.08939 -10.520316,-26.01737 4.542401,-11.02193 17.681485,-15.93734 28.537205,-11.40226" />
    <path
       sodipodi:type="spiral"
       style="fill:none;fill-rule:evenodd;stroke:#000000;stroke-width:0.26458332"
       id="path50"
       sodipodi:cx="152.70239"
       sodipodi:cy="58.119049"
       sodipodi:expansion="1"
       sodipodi:revolution="3"
       sodipodi:radius="34.093365"
       sodipodi:argument="-17.345327"
       sodipodi:t0="0"
       d="m 152.70239,58.119049 c 0.11371,1.705601 -2.24302,0.994757 -2.83482,0.188987 -1.60375,-2.183587 0.3071,-5.013086 2.45685,-5.858629 3.84539,-1.512479 7.83771,1.409444 8.88244,5.102681 1.53317,5.419974 -2.51428,10.711568 -7.74852,11.906246 -6.97642,1.592318 -13.60432,-3.61836 -14.93005,-10.39435 -1.6683,-8.526892 4.72168,-16.50644 13.04018,-17.953862 10.07482,-1.753022 19.4139,5.824507 20.97767,15.686018 1.84285,11.62145 -6.927,22.324694 -18.33185,24.001479 -13.16736,1.935913 -25.23772,-8.029273 -27.02529,-20.977687 -2.03114,-14.712811 9.1314,-28.152311 23.62352,-30.049095 16.25798,-2.127904 31.06804,10.233415 33.07291,26.269355 2.22577,17.802933 -11.33536,33.98462 -28.91519,36.096711" />
    <path
       sodipodi:type="spiral"
       style="fill:none;fill-rule:evenodd;stroke:#000000;stroke-width:0.26458332"
       id="path52"
       sodipodi:cx="173.2643"
       sodipodi:cy="116.32738"
       sodipodi:expansion="1"
       sodipodi:revolution="3"
       sodipodi:radius="18.701229"
       sodipodi:argument="-21.74617"
       sodipodi:t0="0"
       d="m 173.2643,116.32738 c -0.90966,-0.22742 -0.14225,-1.3384 0.37797,-1.51191 1.40976,-0.4702 2.56582,1.00325 2.64584,2.26786 0.14313,2.26208 -2.05375,3.85527 -4.15774,3.77976 -3.08769,-0.11081 -5.17001,-3.11382 -4.91369,-6.04762 0.34163,-3.91029 4.17668,-6.49475 7.9375,-6.04762 4.7326,0.56267 7.8245,5.24072 7.18155,9.82738 -0.7787,5.55506 -6.3054,9.15713 -11.71726,8.31548 -6.3777,-0.99185 -10.49155,-7.37046 -9.44941,-13.60714 1.20319,-7.2005 8.43578,-11.82717 15.49702,-10.58334 8.02343,1.41333 13.16363,9.50129 11.71727,17.38691 -1.62261,8.84646 -10.56694,14.50071 -19.27679,12.85119 -9.66958,-1.83128 -15.83824,-11.63268 -13.98512,-21.16666"
       transform="rotate(-8.8540155,171.91805,114.40798)" />
    <path
       style="fill:none;fill-opacity:1;stroke:#000000;stroke-width:0.26458332px;stroke-linecap:butt;stroke-linejoin:miter;stroke-opacity:1"
       d="M 21.166666,170.37799 6.047619,236.9018 74.083332,242.94942 29.482142,229.34228 Z"
       id="path6187"
       inkscape:connector-curvature="0" />
    <path
       style="fill:url(#pattern10863);fill-opacity:1;fill-rule:nonzero;stroke:none;stroke-width:1;stroke-miterlimit:4;stroke-dasharray:none;stroke-dashoffset:0;stroke-opacity:1"
       id="path6394"
       d="m 86.395071,250.48004 c -1.018278,3.89312 -2.23357,7.72256 -3.069579,11.66689 -0.572386,2.67119 -0.729485,5.39585 -0.805109,8.11794 0.20488,1.67386 -0.452016,3.70557 0.335291,5.26415 0.128344,0.10919 0.238146,0.24498 0.385035,0.32755 0.56752,0.31904 0.843394,0.17669 1.511189,0.36571 0.468235,0.13253 0.908854,0.3496 1.372131,0.49853 0.562158,0.18071 1.134931,0.3266 1.702398,0.4899 0.684655,0.22077 1.369312,0.44156 2.053969,0.66236 4.809212,1.47688 9.772537,2.19493 14.728714,2.9473 4.84917,0.74679 9.75721,0.90397 14.65346,1.02423 6.26754,0.10647 12.53603,0.11255 18.80428,0.10493 6.03972,-0.0359 12.07957,-0.0257 18.11934,-0.044 4.37118,0.003 8.74185,-0.10626 13.11288,-0.10189 4.5161,0.0403 9.03194,0.0723 13.54827,0.0556 3.61435,0.013 7.22765,-0.0889 10.84188,-0.0823 3.0788,0.0744 6.16155,-0.47447 9.14702,-1.19231 1.11424,-0.28372 2.22952,-0.47223 3.29641,-0.91057 0.24219,-0.0995 0.94273,-0.45423 0.71561,-0.32393 -9.39899,5.39184 -11.37601,7.5733 -8.53719,4.58219 0.92766,-2.53312 0.77044,-5.35808 0.76483,-8.02238 -0.0178,-2.4406 -0.0565,-4.88106 -0.0936,-7.3215 -0.0793,-1.64377 0.1803,-3.31243 -0.39506,-4.88105 -1.23442,-1.88905 -3.7268,-2.17181 -5.78727,-2.48348 -2.20587,-0.26453 -4.43056,-0.25541 -6.64826,-0.23847 -1.64298,0.19081 -2.8768,-0.80691 -4.26306,-1.50843 -2.95617,-1.16208 -6.07787,-1.85922 -9.20068,-2.39917 -4.4793,-0.62263 -9.01085,-0.67505 -13.52518,-0.70878 -3.09319,-0.0279 -6.18553,0.0626 -9.27835,0.084 -2.33954,-0.013 -4.64249,-0.0655 -6.94981,0.36054 -1.27971,0.26874 -2.59585,0.51646 -3.82479,0.98005 -0.32531,0.12272 -1.2453,0.61736 -0.94351,0.44472 9.26578,-5.30028 11.20539,-7.12665 8.17208,-4.39023 -0.92772,1.17351 -0.97943,2.68072 -1.23994,4.09497 -0.26395,1.35019 -0.40367,2.71488 -0.4746,4.0872 0.0567,0.59177 -0.33844,2.0007 0.4845,2.19728 1.09024,-0.0124 2.0974,0.33168 3.15061,0.55544 1.09804,0.21154 2.2145,0.25685 3.32922,0.27996 1.114,0.0174 2.22811,0.007 3.34223,0.0112 1.01428,-0.0167 2.02871,-0.007 3.04301,-0.0158 0.99026,-10e-4 1.98059,0.009 2.97082,0.001 1.85571,0.0303 3.71124,0.0633 5.56733,0.0767 2.60382,0.0175 5.20795,0.0134 7.81146,-0.0327 0.28931,-0.004 0.5817,-0.0535 0.86794,-0.0112 0.64844,0.0957 1.25248,0.38824 1.88566,0.55773 1.06673,0.28556 2.14004,0.47209 3.23055,0.63658 1.73298,0.35288 3.30774,1.1888 5.02853,1.5893 0.74617,0.14007 0.38964,0.0225 1.07005,0.35118 0,0 -9.30262,6.22544 -9.30262,6.22544 v 0 c -0.57519,-0.17545 -0.25863,-0.0818 -0.95068,-0.27755 -1.6161,-0.51851 -3.14662,-1.31305 -4.84056,-1.57134 -1.97492,-0.34184 -3.90921,-1.00996 -5.92415,-1.00822 -2.57346,-0.0479 -5.1476,-0.0492 -7.72139,-0.0328 -1.9264,0.0138 -3.85229,0.0466 -5.77834,0.0767 -0.99129,-0.008 -1.98271,0.003 -2.97403,0.003 -1.00349,-0.008 -2.00708,0.006 -3.01058,-0.007 -1.12967,0.007 -2.25957,0.007 -3.38867,-0.0345 -1.15151,-0.0677 -2.2981,-0.19563 -3.42308,-0.45984 -1.1525,-0.27019 -2.38515,-0.32028 -3.44015,-0.87575 -0.96162,-0.87627 -1.09505,-1.96085 -0.9622,-3.22333 0.0435,-1.42065 0.11605,-2.84586 0.43477,-4.23655 0.27098,-1.55577 0.33667,-3.16412 1.01302,-4.61365 3.12276,-4.95223 9.96351,-6.91067 15.53208,-7.93412 2.36137,-0.31118 4.73356,-0.3022 7.1127,-0.27172 3.00848,0.005 6.01628,0.0824 9.02438,0.12362 4.57435,0.10105 9.16755,0.15599 13.70635,0.79054 3.24512,0.58513 6.50597,1.30844 9.58784,2.49634 1.31828,0.60334 2.50349,1.23947 4.0048,1.08988 2.22697,0.0339 4.45941,0.11096 6.66348,0.45753 2.47806,0.49379 5.09973,1.09873 6.54374,3.37489 0.17456,0.48537 0.44143,1.15704 0.50968,1.66394 0.15848,1.17706 -0.14336,2.41571 -0.0211,3.59735 -0.0118,2.46189 -0.005,4.92382 -0.0122,7.38572 -0.0236,2.80069 0.0502,5.6311 -0.35927,8.4065 -1.5066,5.35654 -9.28941,6.6449 -14.28778,7.81756 -3.05645,0.58767 -6.14648,1.09286 -9.27088,0.99489 -3.53873,0.007 -7.07648,-0.0954 -10.61534,-0.0823 -4.5673,-0.0172 -9.13412,0.0161 -13.70118,0.0555 -4.27905,0.005 -8.55773,-0.10285 -12.83694,-0.0981 -6.00988,-0.014 -12.0198,0.005 -18.02966,-0.0209 -6.31029,-0.003 -12.62097,0.0389 -18.93087,-0.0421 -4.96591,-0.0969 -9.94875,-0.21653 -14.857719,-1.04997 -4.993039,-0.79232 -9.9505,-1.74069 -14.839407,-3.0453 -3.130878,-0.85251 -1.076066,-0.30575 -3.942795,-1.04114 -1.449194,-0.37173 -3.001086,-0.52249 -3.934624,-1.82551 -0.130212,-0.26443 -0.303011,-0.51184 -0.39063,-0.79325 -0.447736,-1.43801 0.141213,-3.5242 -0.05304,-5.02214 0.06128,-2.81498 0.227417,-5.63168 0.862899,-8.3853 0.898088,-3.77172 2.059498,-7.48497 2.835407,-11.27921 0,0 9.957988,-5.07385 9.957988,-5.07385 z"
       inkscape:connector-curvature="0" />
    <path
       style="fill:#7f4e50;fill-opacity:1;fill-rule:nonzero;stroke:none;stroke-width:1;stroke-miterlimit:4;stroke-dasharray:none;stroke-dashoffset:0;stroke-opacity:1"
       id="path6452"
       d="m 39.488237,82.382475 c -0.0047,-0.130275 0.02188,-0.265498 -0.01397,-0.390829 -0.128387,-0.448786 -0.409927,-0.743693 -0.853422,-0.932614 -1.446485,-0.616177 -2.86893,-0.133961 -4.29287,0.206399 -0.609139,0.259535 -1.242033,0.469194 -1.827416,0.778605 -0.200057,0.105741 -0.34326,0.295442 -0.504666,0.454033 -0.481039,0.472654 -1.005457,0.908762 -1.422051,1.439093 -0.717608,0.913527 -1.311852,2.038609 -1.341149,3.236066 -0.01241,0.507095 0.197067,0.995172 0.2956,1.492758 0.312963,0.418097 0.544664,0.911746 0.938888,1.254291 1.524232,1.324433 3.72351,1.404866 5.577138,0.887791 0.7913,-0.220737 1.552496,-0.554868 2.27856,-0.939205 0.436568,-0.231092 0.788422,-0.595294 1.182632,-0.892942 1.998155,-1.608664 3.600037,-3.570848 4.870678,-5.79007 0.32639,-0.570053 0.603154,-1.167352 0.886576,-1.75994 0.773269,-1.616781 0.219686,-0.885113 0.966893,-1.753798 0.714254,-0.0089 1.585005,-0.473102 2.14276,-0.02684 0.599366,0.479555 0.417198,1.477706 0.601811,2.222778 0.277408,1.119581 0.525264,2.246286 0.784037,3.370323 0.307877,1.337323 1.709415,7.483499 1.970058,8.688213 0.32847,1.518213 0.630947,3.041933 0.946423,4.562901 0.229301,1.432459 0.534109,2.854862 0.687909,4.297372 0.350443,3.2869 0.418361,7.01143 -1.680853,9.81481 -1.663071,2.22093 -3.297621,2.47432 -5.836129,3.60314 -1.056508,0.045 -2.118807,0.25441 -3.169523,0.13512 -5.569691,-0.63234 -9.735542,-4.89968 -12.263205,-9.60987 -0.766842,-1.42898 -1.281639,-2.97953 -1.922457,-4.46929 0,0 0.474223,-0.26691 0.474223,-0.26691 v 0 c 0.661514,1.47381 1.193478,3.01291 1.984539,4.42142 2.633173,4.68846 6.974475,8.80607 12.56882,9.30607 1.065929,0.0953 2.135973,-0.13689 3.203961,-0.20534 0.595466,-0.17781 1.258811,-0.20504 1.786398,-0.53344 2.843286,-1.76982 4.013285,-4.74586 4.292706,-7.95713 0.113143,-1.30032 0.05373,-2.61427 -0.05012,-3.91536 -0.116104,-1.45471 -0.405609,-2.89036 -0.608412,-4.335533 -0.318098,-1.518904 -0.606303,-3.044375 -0.954294,-4.55671 -0.59909,-2.603568 -1.486476,-5.938289 -2.288823,-8.51137 -0.334819,-1.073748 -0.683908,-2.144437 -1.089861,-3.19336 -0.263443,-0.680701 -0.932719,-1.259289 -0.915805,-1.988994 0.01413,-0.609301 0.664954,-1.021583 0.997432,-1.532374 -0.210804,0.163137 -0.475589,0.273862 -0.632407,0.489405 -0.303578,0.417266 -0.478121,0.914606 -0.720503,1.370153 -0.321945,0.605083 -0.621104,1.223216 -0.97246,1.811708 -0.882449,1.478025 -1.773081,2.745046 -2.95833,4.00717 -0.622689,0.663075 -1.325306,1.246274 -1.98796,1.86941 -1.092793,0.700866 -2.137744,1.48263 -3.278383,2.102597 -2.405439,1.307414 -5.887678,2.028391 -8.183425,0.05522 -0.414012,-0.355841 -0.656461,-0.87245 -0.984692,-1.308677 -0.09457,-0.523139 -0.303464,-1.038166 -0.283715,-1.569418 0.0458,-1.231807 0.66675,-2.401099 1.397529,-3.34727 1.55109,-2.008264 3.870063,-3.207655 6.19498,-4.087492 0.610309,-0.14886 1.210085,-0.350703 1.830925,-0.446577 1.156388,-0.178581 2.601502,-0.214593 3.518156,0.663908 0.144622,0.138602 0.233133,0.329081 0.314249,0.512239 0.05278,0.119176 0.05463,0.254894 0.08194,0.382341 0,0 -1.738923,0.886023 -1.738923,0.886023 z"
       inkscape:connector-curvature="0" />
    <path
       style="fill:#7f4e50;fill-opacity:1;fill-rule:nonzero;stroke:none;stroke-width:1;stroke-miterlimit:4;stroke-dasharray:none;stroke-dashoffset:0;stroke-opacity:1"
       id="path6458"
       d="m 30.030425,69.689463 c 2.77468,-0.438107 5.602465,-0.275055 8.366315,0.165272 0.990148,0.15775 1.969985,0.374518 2.954978,0.561774 1.049327,0.267245 2.108277,0.499208 3.147983,0.80173 2.11509,0.615426 4.322998,1.41193 6.340793,2.29612 1.984063,0.869408 3.835283,1.812351 5.639091,3.014824 0.79684,0.531199 1.532191,1.1493 2.298287,1.723948 0.613492,0.607624 1.272971,1.172089 1.840476,1.822871 1.32905,1.524079 2.564696,3.477704 2.63593,5.571823 0.01892,0.556094 -0.155493,1.101913 -0.233238,1.652868 0,0 -1.350783,0.660966 -1.350783,0.660966 v 0 c 0.100968,-0.544438 0.29822,-1.079613 0.302903,-1.633315 0.01762,-2.084713 -1.130929,-4.05448 -2.40489,-5.610362 -0.539687,-0.659112 -1.173081,-1.23557 -1.759622,-1.853356 -0.743352,-0.584306 -1.453023,-1.21421 -2.230059,-1.752915 -1.773913,-1.229823 -3.588547,-2.174028 -5.561656,-3.045452 -2.052703,-0.906574 -4.195283,-1.669375 -6.357903,-2.267635 -1.056486,-0.292264 -2.133465,-0.504638 -3.200199,-0.756957 -1.011303,-0.165492 -2.017458,-0.36629 -3.033911,-0.496478 -2.954782,-0.378449 -6.01196,-0.432723 -8.914368,0.316378 0,0 1.519873,-1.172104 1.519873,-1.172104 z"
       inkscape:connector-curvature="0" />
    <path
       style="fill:#7f4e50;fill-opacity:1;fill-rule:nonzero;stroke:none;stroke-width:1;stroke-miterlimit:4;stroke-dasharray:none;stroke-dashoffset:0;stroke-opacity:1"
       id="path6460"
       d="m 36.426576,99.080896 c -0.108746,0.209634 -0.232103,0.412316 -0.326242,0.628904 -0.591214,1.36024 -1.074634,3.23653 -0.913966,4.71975 0.04074,0.37605 0.176004,0.73575 0.264007,1.10363 0.183658,0.27105 0.298429,0.60477 0.550971,0.81315 0.226129,0.18659 0.527129,0.30443 0.819983,0.31806 0.632283,0.0294 1.680361,-0.52054 2.100879,-0.88682 0.05967,-0.052 -0.210852,-0.10981 -0.162862,-0.17274 0.32684,-0.42859 0.770967,-0.75343 1.156449,-1.13015 0.901846,-0.96412 1.764805,-1.96865 2.554314,-3.02752 0.133813,-0.17946 0.2638,-0.3622 0.382651,-0.55191 0.113845,-0.18172 0.150135,-0.37944 0.10292,-0.1649 -0.371779,0.65491 -0.156718,0.19491 1.220007,-0.55108 0.120113,-0.0651 -0.223165,0.16021 -0.346686,0.21858 -0.668443,0.31582 -1.294122,0.79788 -2.025988,0.90246 -0.22751,0.0325 -0.314532,-0.34529 -0.409885,-0.5544 -0.148209,-0.32502 -0.207079,-0.68376 -0.310621,-1.025646 -0.302559,-1.633056 -0.538509,-3.289933 -0.619416,-4.950669 -0.05094,-1.045737 -0.07495,-2.119389 0.21064,-3.141946 0.112871,-0.404127 0.333661,-0.770003 0.500489,-1.155006 1.077682,-1.085933 1.157769,-1.3368 3.143226,-1.889639 0.585531,-0.163036 1.608439,0.448228 1.9822,0.782688 0.766741,0.686117 0.975161,1.312579 1.435169,2.213258 1.133176,2.87042 1.225642,5.981467 1.338498,9.02555 0.01807,0.47015 0.03615,0.9403 0.05423,1.41044 0,0 -1.404041,0.72036 -1.404041,0.72036 v 0 c -0.0084,-0.47482 -0.01685,-0.94965 -0.02529,-1.42447 -0.07216,-2.536491 -0.134622,-5.143296 -0.862888,-7.595803 -0.135599,-0.456642 -0.321844,-0.896689 -0.482767,-1.345034 -0.215603,-0.395364 -0.389728,-0.816353 -0.646808,-1.186092 -0.448254,-0.644695 -0.989653,-1.183122 -1.751386,-1.43873 -0.314036,-0.105379 -0.79295,0.151243 -0.986782,-0.11737 -0.145457,-0.201575 0.726837,-0.664217 0.508397,-0.545576 -0.320225,0.173927 -0.54991,0.478309 -0.824867,0.717463 -0.191043,0.381288 -0.437285,0.739608 -0.57313,1.143865 -0.34839,1.036765 -0.367435,2.068216 -0.317505,3.14969 0.07492,1.622825 0.365894,3.244284 0.804836,4.805529 0.129534,0.303049 0.220562,0.625631 0.388606,0.909143 0.0908,0.153196 0.47692,0.233625 0.375518,0.380025 -0.292338,0.42207 -0.843449,0.58595 -1.256136,0.89139 -0.106137,0.0786 0.222454,-0.14241 0.33577,-0.2102 2.003951,-1.198875 1.191032,-1.080487 2.240031,-1.176483 0.02233,0.05884 0.08573,0.116464 0.06695,0.17653 -0.03866,0.123639 -0.142976,0.216313 -0.221893,0.319043 -0.157284,0.20474 -0.322209,0.40351 -0.486309,0.60283 -0.869461,1.05605 -1.750029,2.10459 -2.686646,3.10221 -1.638871,1.64837 -1.094621,1.23537 -3.645958,2.89248 -0.61681,0.40062 -1.484162,0.93906 -2.294871,0.83663 -0.876721,-0.11076 -0.992638,-0.65572 -1.388774,-1.30465 -0.0819,-0.38495 -0.207061,-0.7632 -0.245708,-1.15486 -0.144645,-1.46584 0.2662,-3.30097 0.714102,-4.70243 0.06373,-0.19939 0.145751,-0.39247 0.218628,-0.588708 0,0 1.747949,-0.790826 1.747949,-0.790826 z"
       inkscape:connector-curvature="0" />
    <path
       style="fill:#7f4e50;fill-opacity:1;fill-rule:nonzero;stroke:none;stroke-width:1;stroke-miterlimit:4;stroke-dasharray:none;stroke-dashoffset:0;stroke-opacity:1"
       id="path6462"
       d="m 45.000902,106.65274 c -0.426712,0.0857 -0.478314,0.0731 -0.926235,0.29106 -0.233408,0.11357 -0.848114,0.18504 -0.678728,0.38172 0.174064,0.20212 0.708642,-0.58178 0.735018,-0.31635 0.03263,0.32839 -0.486452,0.44907 -0.696537,0.70358 -0.216559,0.26235 -0.385559,0.56058 -0.578339,0.84086 -0.327872,0.66002 -0.86477,1.53192 -0.668846,2.32333 0.0386,0.15593 0.119912,0.32143 0.2544,0.40926 0.365088,0.23843 0.89408,-0.0526 1.203132,-0.15301 -0.18749,0.0994 -0.714701,0.44621 -0.562465,0.29834 0.311097,-0.30218 0.708925,-0.50061 1.048478,-0.77042 0.355298,-0.28232 0.696047,-0.58273 1.034661,-0.88486 0.882443,-0.78738 1.725641,-1.62226 2.585505,-2.43415 0.563399,-0.52777 1.127742,-1.05715 1.770433,-1.4873 0,0 1.76485,-0.68346 1.76485,-0.68346 v 0 c -0.726574,0.41597 -1.350401,0.9758 -1.97386,1.53087 -0.89575,0.81668 -1.768287,1.65922 -2.666346,2.4731 -0.42145,0.38195 -1.491279,1.33422 -1.993064,1.65197 -0.781535,0.49489 -1.604582,0.92096 -2.406873,1.38144 -0.480316,0.115 -0.950436,0.38448 -1.404162,-0.002 -0.146111,-0.12448 -0.223329,-0.32527 -0.260395,-0.51361 -0.166013,-0.84359 0.383826,-1.74334 0.720352,-2.45928 0.339238,-0.52662 0.703969,-1.20242 1.226921,-1.58893 0.711268,-0.5257 1.484021,-0.96304 2.238274,-1.42496 0.556019,-0.34051 1.146998,-0.61166 1.789097,-0.73682 0,0 -1.555271,1.16969 -1.555271,1.16969 z"
       inkscape:connector-curvature="0" />
    <path
       style="fill:#7f4e50;fill-opacity:1;fill-rule:nonzero;stroke:none;stroke-width:1;stroke-miterlimit:4;stroke-dasharray:none;stroke-dashoffset:0;stroke-opacity:1"
       id="path6464"
       d="m 60.748028,90.643251 c 0.484307,-0.27333 0.951696,-0.579085 1.452923,-0.819991 0.15807,-0.07597 -0.282885,0.207909 -0.416296,0.321754 -0.191407,0.163338 -0.378499,0.332126 -0.557358,0.509117 -0.557485,0.551667 -0.929955,0.977185 -1.400201,1.620401 -0.245621,0.335968 -0.465439,0.690059 -0.698156,1.035089 -0.870109,1.544048 -1.615295,3.26484 -1.119537,5.069668 0.346051,1.259806 0.80663,1.682541 1.571524,2.743251 0.451917,0.47292 0.902989,0.94664 1.355747,1.41875 0.538226,0.56124 1.058997,1.13991 1.617199,1.68128 0.562076,0.54512 1.165558,1.04592 1.741625,1.57623 1.152615,1.06107 2.166848,1.9562 3.133542,3.19379 0.427488,0.54729 0.774833,1.15269 1.162249,1.72903 0.24878,0.59377 0.569325,1.16235 0.746337,1.78132 0.478647,1.67372 0.296709,3.42545 -0.35346,5.02105 -0.472506,1.15959 -0.825489,1.52197 -1.543658,2.50361 -0.508284,0.52965 -1.038609,1.16524 -1.688931,1.54396 -0.959416,0.55872 -2.029868,1.5118 -3.236825,1.13518 -0.71541,-0.22323 -1.120021,-0.75974 -1.624539,-1.26239 -0.240067,-0.31683 -0.480137,-0.63365 -0.720204,-0.95048 0,0 1.416524,-0.84426 1.416524,-0.84426 v 0 c 0.24453,0.30456 0.489061,0.6091 0.733591,0.91366 0.524166,0.4761 0.892813,0.94122 1.609484,1.12438 0.26964,0.0689 0.706128,-0.23262 0.834803,0.0142 0.116091,0.22265 -0.795192,0.60487 -0.571611,0.4906 0.645435,-0.32989 1.301753,-1.05478 1.798804,-1.54075 0.753994,-0.97364 1.11615,-1.32134 1.620967,-2.48152 0.679117,-1.56077 0.907569,-3.30546 0.479407,-4.97103 -0.158478,-0.61648 -0.4616,-1.18642 -0.692399,-1.77963 -0.375986,-0.57583 -0.712785,-1.17925 -1.127961,-1.72749 -0.979517,-1.29347 -1.888318,-2.107 -3.078692,-3.20994 -3.06243,-2.83752 -0.44296,-0.30899 -3.457744,-3.20524 -0.480801,-0.46189 -0.955207,-0.9304 -1.432809,-1.3956 -0.820488,-1.05569 -1.317138,-1.4774 -1.702755,-2.7599 -0.545703,-1.814925 0.195707,-3.576368 1.03459,-5.156734 0.622533,-0.967494 1.158409,-1.782138 1.941055,-2.630348 0.15712,-0.170283 0.32417,-0.331179 0.489667,-0.493331 0.111455,-0.109207 0.20933,-0.237014 0.341074,-0.320627 0.617247,-0.391756 1.264912,-0.733383 1.897369,-1.100074 0,0 -1.555345,1.223062 -1.555345,1.223062 z"
       inkscape:connector-curvature="0" />
    <path
       style="fill:#7f4e50;fill-opacity:1;fill-rule:nonzero;stroke:none;stroke-width:1;stroke-miterlimit:4;stroke-dasharray:none;stroke-dashoffset:0;stroke-opacity:1"
       id="path6552"
       d="m 30.646669,96.649801 c -0.395767,0.863057 -0.942647,1.659665 -1.613557,2.333297 -0.219633,0.220525 -0.457623,0.421973 -0.686437,0.632962 -0.29531,0.228759 -0.580004,0.47193 -0.885931,0.68628 -0.352324,0.24687 -0.712377,0.48425 -1.086859,0.696 -0.858708,0.48556 -1.716224,0.97765 -2.610277,1.39457 -0.59903,0.27934 -2.190251,0.70407 -2.827334,0.80883 -0.488332,0.0803 -0.985641,0.0904 -1.478461,0.13566 -0.484853,-0.0506 -0.98171,-0.0333 -1.45456,-0.15191 -1.029222,-0.25809 -1.903494,-0.78019 -2.608989,-1.57968 -0.881338,-0.99877 -1.429244,-2.282715 -1.826883,-3.530945 -0.246696,-0.774406 -0.392759,-1.57734 -0.589138,-2.36601 -0.127738,-0.884375 -0.308438,-1.76271 -0.383214,-2.653128 -0.246408,-2.934216 0.03697,-5.857597 0.848897,-8.688459 0.738331,-2.574276 1.105279,-3.054077 2.27568,-5.426334 1.394594,-2.370891 3.099072,-4.401259 5.294202,-6.068843 1.508828,-1.146217 3.675479,-2.315919 5.321975,-3.07861 0.692203,-0.320643 1.430766,-0.529846 2.146149,-0.794768 0,0 -1.041868,0.814956 -1.041868,0.814956 v 0 c -0.701781,0.260072 -1.406953,0.511173 -2.105344,0.780214 -0.360334,0.138814 -0.734912,0.251825 -1.070324,0.443156 -2.295502,1.309433 -4.306817,3.016099 -5.930694,5.105323 -0.577046,0.742405 -1.057043,1.555393 -1.585563,2.333091 -0.437199,0.867865 -0.930633,1.709618 -1.311596,2.603598 -1.531484,3.593832 -2.178835,7.523162 -1.777501,11.413519 0.09045,0.876731 0.29447,1.737997 0.441705,2.606997 0.482113,1.693791 0.652031,2.710577 1.519173,4.230722 0.577431,1.012271 1.283953,1.843971 2.302389,2.426561 1.090808,0.62399 1.582472,0.53973 2.789243,0.65102 1.475971,-0.15071 1.479004,-0.0801 2.917612,-0.51597 0.467005,-0.14148 0.90489,-0.37526 1.378553,-0.49253 0.07732,-0.0192 -0.218172,0.22509 -0.147789,0.18779 0.771031,-0.40863 1.210827,-0.79213 1.884515,-1.31486 0.855937,-0.792053 1.752192,-1.657566 2.114081,-2.800796 0,0 1.788145,-0.821703 1.788145,-0.821703 z"
       inkscape:connector-curvature="0" />
    <path
       style="fill:#7f4e50;fill-opacity:1;fill-rule:nonzero;stroke:none;stroke-width:1;stroke-miterlimit:4;stroke-dasharray:none;stroke-dashoffset:0;stroke-opacity:1"
       id="path7064"
       d="m 54.147619,113.91089 c -0.0058,0.10978 -0.01701,0.21942 -0.01741,0.32936 -0.0038,1.06063 0.160425,2.12901 0.405416,3.15852 0.08362,0.35141 0.188547,0.6974 0.282818,1.0461 0.471628,1.53062 1.165905,2.98239 2.03362,4.32706 0.117557,0.18217 0.24381,0.35858 0.365715,0.53787 0.301894,0.43675 0.652174,0.83532 1.006022,1.22972 0,0 -1.126987,0.94118 -1.126987,0.94118 v 0 c -0.312793,-0.43919 -0.612212,-0.88714 -0.877528,-1.35718 -0.901893,-1.60121 -1.688933,-3.26668 -2.259743,-5.01686 -0.105791,-0.34242 -0.219204,-0.68257 -0.317378,-1.02725 -0.305647,-1.07309 -0.51476,-2.16791 -0.748337,-3.25759 0,0 1.253792,-0.91093 1.253792,-0.91093 z"
       inkscape:connector-curvature="0" />
    <path
       style="fill:#7f4e50;fill-opacity:1;fill-rule:nonzero;stroke:none;stroke-width:1;stroke-miterlimit:4;stroke-dasharray:none;stroke-dashoffset:0;stroke-opacity:1"
       id="path7230"
       d="m 47.931053,118.27856 c 0.692412,1.24628 1.42449,2.46993 2.167588,3.68649 0.523219,0.84519 0.273632,0.43678 0.749769,1.22464 0,0 -1.097114,0.88484 -1.097114,0.88484 v 0 c -0.415583,-0.82952 -0.1916,-0.40276 -0.675891,-1.27819 -0.647184,-1.10314 -1.311267,-2.2634 -2.179246,-3.21081 -0.07612,-0.0831 -0.160509,-0.1582 -0.240763,-0.2373 0,0 1.275657,-1.06967 1.275657,-1.06967 z"
       inkscape:connector-curvature="0" />
    <path
       style="fill:#ff00ad;fill-opacity:1;fill-rule:nonzero;stroke:none;stroke-width:1;stroke-miterlimit:4;stroke-dasharray:none;stroke-dashoffset:0;stroke-opacity:1"
       id="path7580"
       d="m 56.252324,170.47337 c 0.08989,1.98307 -0.07864,3.96814 -0.01667,5.95077 0.04461,1.42721 0.187132,2.84973 0.296095,4.27348 0.36911,4.8229 0.855305,9.63482 1.334267,14.44767 0.616638,6.14729 1.318141,12.28692 1.811153,18.44579 0,0 -1.893462,1.17006 -1.893462,1.17006 v 0 c 0.0031,-0.93754 0.02072,-1.87515 0.0093,-2.81262 -0.06557,-5.40699 -0.427612,-10.80782 -0.901798,-16.19251 -0.161634,-1.62307 -0.309589,-3.24756 -0.484905,-4.8692 -0.35117,-3.24824 -0.73316,-6.16504 -1.133125,-9.40139 -0.170572,-1.3802 -0.279593,-2.7692 -0.507244,-4.14114 -0.382084,-2.30263 -0.673208,-3.17775 -1.237387,-5.14074 0,0 2.723721,-1.73017 2.723721,-1.73017 z"
       inkscape:connector-curvature="0" />
    <path
       style="fill:#ff00ad;fill-opacity:1;fill-rule:nonzero;stroke:none;stroke-width:1;stroke-miterlimit:4;stroke-dasharray:none;stroke-dashoffset:0;stroke-opacity:1"
       id="path7582"
       d="m 64.602894,158.31262 c -0.01426,0.30437 -0.03864,0.60843 -0.04276,0.91311 -0.03644,2.6923 0.09062,5.39437 0.220086,8.08181 0.211611,4.39249 0.292931,5.3261 0.589759,9.89364 0.521851,7.58023 1.216538,15.14913 2.091351,22.69681 0.450935,3.89058 0.602845,4.92505 1.099251,8.66392 0.492723,3.6709 1.060051,7.33062 1.685058,10.9811 0,0 -2.510891,1.57099 -2.510891,1.57099 v 0 c -0.08563,-3.91287 -0.264366,-7.82343 -0.486328,-11.73078 -0.624245,-10.57616 -1.400252,-21.1473 -2.704891,-31.66446 -0.490604,-3.72873 -0.740947,-5.8159 -1.304472,-9.44508 -0.382117,-2.46086 -0.790628,-4.93753 -1.368031,-7.36257 -0.06341,-0.2663 -0.143444,-0.52836 -0.215167,-0.79255 0,0 2.947035,-1.80594 2.947035,-1.80594 z"
       inkscape:connector-curvature="0" />
    <path
       style="fill:#ff00ad;fill-opacity:1;fill-rule:nonzero;stroke:none;stroke-width:1;stroke-miterlimit:4;stroke-dasharray:none;stroke-dashoffset:0;stroke-opacity:1"
       id="path7734"
       d="m 75.013483,157.70474 c -0.01646,0.17953 -0.04144,0.35848 -0.04935,0.53858 -0.08457,1.92411 -1.8e-4,3.86526 0.07127,5.78695 0.133448,3.589 0.173148,3.94225 0.38672,7.71918 0.55072,9.93602 1.203344,19.86516 2.025896,29.78238 0.420526,4.92147 0.872207,9.84094 1.410864,14.75102 0.0918,0.81864 0.195744,1.63584 0.28801,2.45443 0,0 -2.913319,1.79306 -2.913319,1.79306 v 0 c 0.05851,-0.90084 0.105129,-1.80244 0.130537,-2.7049 0.125225,-5.19076 0.05365,-10.38607 -0.07171,-15.57601 -0.136054,-3.76378 -0.188175,-5.68931 -0.401431,-9.50927 -0.376344,-6.7413 -0.959517,-13.47171 -1.773524,-20.17444 -0.572195,-4.3547 -1.088728,-8.738 -2.117317,-13.0144 0,0 3.01335,-1.84658 3.01335,-1.84658 z"
       inkscape:connector-curvature="0" />
    <path
       style="fill:#ff00ad;fill-opacity:1;fill-rule:nonzero;stroke:none;stroke-width:1;stroke-miterlimit:4;stroke-dasharray:none;stroke-dashoffset:0;stroke-opacity:1"
       id="path7800"
       d="m 85.620327,166.87493 c -0.451232,2.48963 -0.39893,5.05362 -0.334066,7.57209 0.07696,2.98828 0.204995,4.83934 0.374319,7.86747 0.375666,5.58091 0.880269,11.15434 1.557806,16.70702 0.327249,2.68194 0.463344,3.52163 0.837908,6.0949 0.441217,2.86918 0.226124,1.51862 0.640541,4.05241 0,0 -2.298831,1.37015 -2.298831,1.37015 v 0 c -0.10338,-2.70831 -0.03893,-1.27045 -0.200966,-4.3132 -0.488412,-7.71782 -1.037269,-15.43335 -1.863077,-23.12362 -0.145747,-1.34543 -0.282501,-2.69189 -0.43724,-4.03633 -0.400992,-3.48406 -0.907015,-6.95533 -1.296834,-10.4406 0,0 3.02044,-1.75029 3.02044,-1.75029 z"
       inkscape:connector-curvature="0" />
    <text
       xml:space="preserve"
       style="font-style:normal;font-weight:normal;font-size:10.58333302px;line-height:1.25;font-family:sans-serif;letter-spacing:0px;word-spacing:0px;fill:#ff9d00;fill-opacity:1;stroke:none;stroke-width:0.26458332;"
       x="11.41929"
       y="11.280887"
       id="text7810"><tspan
         sodipodi:role="line"
         id="tspan7808"
         x="11.41929"
         y="11.280887"
         style="stroke-width:0.26458332;fill:#ff9d00;fill-opacity:1;">I JUST WANTED TO LEARN HOW TO</tspan><tspan
         sodipodi:role="line"
         x="11.41929"
         y="24.510052"
         style="stroke-width:0.26458332;fill:#ff9d00;fill-opacity:1;"
         id="tspan7812"> MAKE CHEAT SHEET REFERENCES</tspan></text>
    <text
       xml:space="preserve"
       style="font-style:normal;font-weight:normal;font-size:1.41111111px;line-height:1.25;font-family:sans-serif;letter-spacing:0px;word-spacing:0px;fill:#000000;fill-opacity:1;stroke:none;stroke-width:0.26458332;"
       x="13.620379"
       y="213.25989"
       id="text7882"><tspan
         sodipodi:role="line"
         id="tspan7880"
         x="13.620379"
         y="222.62366"
         style="stroke-width:0.26458332;font-size:1.41111111px;" /></text>
    <text
       xml:space="preserve"
       style="font-style:normal;font-weight:normal;font-size:2.82222223px;line-height:1.25;font-family:sans-serif;text-align:center;letter-spacing:0px;word-spacing:0px;text-anchor:middle;fill:#008600;fill-opacity:1;stroke:none;stroke-width:0.26458332;stroke-opacity:1"
       x="19.456615"
       y="208.77119"
       id="text7886"><tspan
         sodipodi:role="line"
         id="tspan7884"
         x="19.456615"
         y="208.77119"
         style="text-align:center;text-anchor:middle;fill:#008600;fill-opacity:1;stroke:none;stroke-width:0.26458332;stroke-opacity:1">HOW DO</tspan><tspan
         sodipodi:role="line"
         x="19.456615"
         y="212.29897"
         style="text-align:center;text-anchor:middle;fill:#008600;fill-opacity:1;stroke:none;stroke-width:0.26458332;stroke-opacity:1"
         id="tspan7888">I FILL THIS</tspan><tspan
         sodipodi:role="line"
         x="19.456615"
         y="215.82675"
         style="text-align:center;text-anchor:middle;fill:#008600;fill-opacity:1;stroke:none;stroke-width:0.26458332;stroke-opacity:1"
         id="tspan7890">IN? THIS</tspan><tspan
         sodipodi:role="line"
         x="19.456615"
         y="219.35452"
         style="text-align:center;text-anchor:middle;fill:#008600;fill-opacity:1;stroke:none;stroke-width:0.26458332;stroke-opacity:1"
         id="tspan7892">SHOULD</tspan><tspan
         sodipodi:role="line"
         x="19.456615"
         y="222.88231"
         style="text-align:center;text-anchor:middle;fill:#008600;fill-opacity:1;stroke:none;stroke-width:0.26458332;stroke-opacity:1"
         id="tspan7894">BE EASY!</tspan><tspan
         sodipodi:role="line"
         x="19.905855"
         y="226.41008"
         style="text-align:center;text-anchor:middle;fill:#008600;fill-opacity:1;stroke:none;stroke-width:0.26458332;stroke-opacity:1"
         id="tspan7896">BUT I THINK I   </tspan><tspan
         sodipodi:role="line"
         x="19.905855"
         y="229.93787"
         style="text-align:center;text-anchor:middle;fill:#008600;fill-opacity:1;stroke:none;stroke-width:0.26458332;stroke-opacity:1"
         id="tspan7898">HAVE FIGURED   </tspan><tspan
         sodipodi:role="line"
         x="19.905857"
         y="233.46564"
         style="text-align:center;text-anchor:middle;fill:#008600;fill-opacity:1;stroke:none;stroke-width:0.26458332;stroke-opacity:1"
         id="tspan7902">     IT OUT; AND NOW I  </tspan><tspan
         sodipodi:role="line"
         x="19.456615"
         y="236.99342"
         style="text-align:center;text-anchor:middle;fill:#008600;fill-opacity:1;stroke:none;stroke-width:0.26458332;stroke-opacity:1"
         id="tspan7906">                      AM JUST BEING POETICAL</tspan><tspan
         sodipodi:role="line"
         x="19.456614"
         y="240.52119"
         style="text-align:center;text-anchor:middle;fill:#008600;fill-opacity:1;stroke:none;stroke-width:0.26458332;stroke-opacity:1"
         id="tspan7908">                                                                               <tspan
   style="font-size:2.11666656px"
   id="tspan7910">TEXT FILL!</tspan></tspan></text>
    <path
       style="fill:none;stroke:#ffffff;stroke-width:0.27434584px;stroke-linecap:butt;stroke-linejoin:miter;stroke-opacity:1"
       d="m 115.36898,186.67183 0.40754,85.496"
       id="path7916"
       inkscape:connector-curvature="0" />
    <path
       sodipodi:type="spiral"
       style="fill:none;fill-rule:evenodd;stroke:#ffc800;stroke-width:0.26458332;stroke-opacity:1"
       id="path7993"
       sodipodi:cx="159.19279"
       sodipodi:cy="218.21893"
       sodipodi:expansion="1"
       sodipodi:revolution="3"
       sodipodi:radius="12.133582"
       sodipodi:argument="-15.915829"
       sodipodi:t0="0"
       d="m 159.19279,218.21893 c -0.59526,0.12555 -0.46291,-0.74046 -0.20866,-0.98936 0.68899,-0.67452 1.78173,-0.14305 2.1874,0.57202 0.72564,1.27911 -0.10379,2.83223 -1.35273,3.38544 -1.83286,0.81186 -3.90019,-0.34903 -4.58347,-2.13342 -0.9107,-2.37831 0.59307,-4.97478 2.91412,-5.78151 2.9208,-1.01518 6.05263,0.83637 6.97954,3.69482 1.12262,3.46196 -1.07922,7.13233 -4.47551,8.17757 -4.00241,1.23179 -8.2132,-1.32179 -9.37561,-5.2562 -1.34206,-4.54244 1.56417,-9.29484 6.0369,-10.57365 5.0822,-1.45307 10.37702,1.80643 11.77168,6.8176 1.56461,5.62178 -2.04858,11.4596 -7.5983,12.96972 -6.16123,1.67652 -12.54246,-2.29067 -14.16775,-8.379" />
    <path
       sodipodi:type="spiral"
       style="fill:none;fill-rule:evenodd;stroke:#ffff00;stroke-width:0.26458332;stroke-opacity:1"
       id="path8003"
       sodipodi:cx="151.00127"
       sodipodi:cy="202.00694"
       sodipodi:expansion="1"
       sodipodi:revolution="3"
       sodipodi:radius="1.8053155"
       sodipodi:argument="-17.806833"
       sodipodi:t0="0"
       d="m 151.00127,202.00694 c 0.0456,0.0782 -0.0829,0.10006 -0.12995,0.0758 -0.12753,-0.0657 -0.10365,-0.24493 -0.0217,-0.33571 0.14665,-0.16238 0.40484,-0.11798 0.54146,0.0325 0.20049,0.22082 0.13336,0.56715 -0.0866,0.74721 -0.29322,0.24 -0.73033,0.14923 -0.95296,-0.14078 -0.28016,-0.36494 -0.16535,-0.89394 0.19492,-1.15871 0.43634,-0.32068 1.0578,-0.18162 1.36447,0.24907 0.3614,0.50754 0.19798,1.2218 -0.30321,1.57022 -0.57865,0.40226 -1.38591,0.2144 -1.77598,-0.35736 -0.44322,-0.64968 -0.23087,-1.55009 0.41151,-1.98173 0.72065,-0.48424 1.71431,-0.24738 2.18748,0.46565 0.52531,0.7916 0.2639,1.87858 -0.5198,2.39324" />
    <path
       sodipodi:type="spiral"
       style="fill:none;fill-rule:evenodd;stroke:#ffff00;stroke-width:0.26458332;stroke-opacity:1"
       id="path8005"
       sodipodi:cx="173.60213"
       sodipodi:cy="209.39449"
       sodipodi:expansion="1"
       sodipodi:revolution="3"
       sodipodi:radius="1.4816518"
       sodipodi:argument="-21.081396"
       sodipodi:t0="0"
       d="m 173.60213,209.39449 c -0.0456,-0.0586 0.0565,-0.0904 0.0975,-0.0758 0.11089,0.0396 0.11096,0.18796 0.0541,0.27073 -0.10163,0.14805 -0.31648,0.14003 -0.44399,0.0325 -0.18712,-0.15782 -0.1702,-0.44685 -0.0108,-0.61726 0.21242,-0.22714 0.57787,-0.20086 0.79053,0.0108 0.26761,0.26638 0.23177,0.7092 -0.0325,0.96379 -0.32005,0.30833 -0.84073,0.26283 -1.13706,-0.0542 -0.34921,-0.37355 -0.29399,-0.97236 0.0758,-1.31032 0.42694,-0.39019 1.10406,-0.32521 1.48359,0.0975 0.43123,0.48027 0.35647,1.23583 -0.11912,1.65686 -0.53355,0.47233 -1.36763,0.38776 -1.83013,-0.14078 -0.51346,-0.58678 -0.41908,-1.49945 0.16244,-2.00339" />
    <path
       sodipodi:type="spiral"
       style="fill:none;fill-rule:evenodd;stroke:#ffff00;stroke-width:0.26458332;stroke-opacity:1"
       id="path8007"
       sodipodi:cx="171.66322"
       sodipodi:cy="232.80496"
       sodipodi:expansion="1"
       sodipodi:revolution="3"
       sodipodi:radius="1.515458"
       sodipodi:argument="-19.389975"
       sodipodi:t0="0"
       d="m 171.66322,232.80496 c 0.0652,-0.0391 0.0848,0.0685 0.065,0.10829 -0.0538,0.10773 -0.20451,0.0895 -0.28156,0.0217 -0.13782,-0.12142 -0.10323,-0.33859 0.0217,-0.45482 0.18328,-0.17058 0.47467,-0.11782 0.62809,0.065 0.20448,0.24364 0.13282,0.61148 -0.10829,0.80136 -0.30343,0.23894 -0.74865,0.14805 -0.97462,-0.15161 -0.27369,-0.36293 -0.16341,-0.88601 0.19492,-1.14789 0.42228,-0.30861 1.0235,-0.17884 1.32115,0.23825 0.34365,0.48153 0.19433,1.16107 -0.28156,1.49441 -0.54073,0.37877 -1.29871,0.20986 -1.66768,-0.32487 -0.41393,-0.59989 -0.22541,-1.43639 0.36819,-1.84095 0.65901,-0.44914 1.5741,-0.24098 2.01422,0.41151" />
    <path
       sodipodi:type="spiral"
       style="fill:none;fill-rule:evenodd;stroke:#ffff00;stroke-width:0.26458332;stroke-opacity:1"
       id="path8009"
       sodipodi:cx="139.17587"
       sodipodi:cy="224.61815"
       sodipodi:expansion="1"
       sodipodi:revolution="3"
       sodipodi:radius="1.1767423"
       sodipodi:argument="-17.389418"
       sodipodi:t0="0"
       d="m 139.17587,224.61815 c 0.007,0.0586 -0.0758,0.0377 -0.0975,0.0108 -0.0586,-0.0729 0.003,-0.17333 0.0758,-0.20576 0.1303,-0.058 0.27241,0.0367 0.31405,0.16244 0.0611,0.18456 -0.0704,0.37318 -0.24907,0.42234 -0.23814,0.0655 -0.47461,-0.10407 -0.53063,-0.33571 -0.0705,-0.29148 0.1377,-0.57635 0.42234,-0.63891 0.34473,-0.0758 0.67828,0.1713 0.74721,0.50896 0.0812,0.39793 -0.2049,0.78034 -0.5956,0.85551 -0.45109,0.0868 -0.88246,-0.23847 -0.9638,-0.68224 -0.0924,-0.50423 0.27204,-0.98463 0.76887,-1.07208 0.55737,-0.0981 1.08685,0.3056 1.18038,0.8555 0.10383,0.61049 -0.33917,1.18909 -0.94214,1.28866" />
    <path
       sodipodi:type="spiral"
       style="fill:none;fill-rule:evenodd;stroke:#ffff00;stroke-width:0.26458332;stroke-opacity:1"
       id="path8011"
       sodipodi:cx="161.65712"
       sodipodi:cy="236.96335"
       sodipodi:expansion="1"
       sodipodi:revolution="3"
       sodipodi:radius="1.3995985"
       sodipodi:argument="-17.659266"
       sodipodi:t0="0"
       d="m 161.65712,236.96335 c 0.0261,0.0652 -0.075,0.0673 -0.10829,0.0433 -0.0903,-0.0649 -0.0516,-0.19963 0.0217,-0.25989 0.13097,-0.10781 0.32389,-0.0443 0.4115,0.0866 0.12858,0.19219 0.0376,0.45011 -0.1516,0.56311 -0.25222,0.15062 -0.57706,0.0312 -0.71473,-0.21658 -0.17323,-0.31179 -0.0249,-0.70436 0.28156,-0.86633 0.37115,-0.19617 0.83186,-0.0187 1.01794,0.34653 0.21928,0.43041 0.0125,0.9595 -0.41151,1.16955 -0.48958,0.24251 -1.08721,0.006 -1.32115,-0.47648 -0.26582,-0.54872 -3.5e-4,-1.21498 0.54146,-1.47276 0.60782,-0.28919 1.34279,0.006 1.62436,0.60643 0.3126,0.66691 -0.0118,1.47064 -0.6714,1.77597" />
    <path
       sodipodi:type="spiral"
       style="fill:none;fill-rule:evenodd;stroke:#ffff00;stroke-width:0.26458332;stroke-opacity:1"
       id="path8017"
       sodipodi:cx="152.82056"
       sodipodi:cy="235.53391"
       sodipodi:expansion="1"
       sodipodi:revolution="3"
       sodipodi:radius="1.689343"
       sodipodi:argument="-20.02556"
       sodipodi:t0="0"
       d="m 152.82056,235.53391 c 0.0326,-0.0782 0.12146,0.005 0.12995,0.0541 0.023,0.13226 -0.12421,0.21566 -0.23824,0.20575 -0.20399,-0.0177 -0.31667,-0.23542 -0.28156,-0.42233 0.0515,-0.2743 0.34783,-0.41981 0.60643,-0.35736 0.34467,0.0832 0.52381,0.46063 0.43316,0.79052 -0.11406,0.41514 -0.5736,0.62824 -0.97462,0.50897 -0.48568,-0.14445 -0.73291,-0.68667 -0.58477,-1.15871 0.17458,-0.5563 0.79979,-0.83775 1.34281,-0.66058 0.62694,0.20455 0.94269,0.91296 0.73638,1.52691 -0.23441,0.69761 -1.02615,1.04769 -1.711,0.81218 -0.7683,-0.26421 -1.15276,-1.13936 -0.88799,-1.8951 0.29395,-0.83901 1.25259,-1.25785 2.0792,-0.96379" />
    <path
       sodipodi:type="spiral"
       style="fill:none;fill-rule:evenodd;stroke:#ffff00;stroke-width:0.26458332;stroke-opacity:1"
       id="path8021"
       sodipodi:cx="178.81046"
       sodipodi:cy="224.35825"
       sodipodi:expansion="1"
       sodipodi:revolution="3"
       sodipodi:radius="1.5647987"
       sodipodi:argument="-21.264505"
       sodipodi:t0="0"
       d="m 178.81046,224.35825 c -0.0586,-0.0521 0.0413,-0.10476 0.0866,-0.0975 0.12276,0.0198 0.15137,0.17386 0.10829,0.27073 -0.0771,0.17329 -0.30173,0.20628 -0.45482,0.11912 -0.22467,-0.1279 -0.26268,-0.4313 -0.12995,-0.63892 0.1769,-0.27672 0.56146,-0.31971 0.82301,-0.14077 0.32913,0.22517 0.37707,0.69191 0.15161,1.0071 -0.27307,0.38175 -0.82252,0.43463 -1.19121,0.16244 -0.43448,-0.32076 -0.49229,-0.95322 -0.17326,-1.3753 0.36833,-0.4873 1.08399,-0.55004 1.55939,-0.18409 0.54019,0.41581 0.60784,1.2148 0.19493,1.74349 -0.46324,0.5931 -1.34566,0.66568 -1.92759,0.20575 -0.64605,-0.51061 -0.72355,-1.47653 -0.21658,-2.11168" />
    <path
       sodipodi:type="spiral"
       style="fill:none;fill-rule:evenodd;stroke:#ffff00;stroke-width:0.26458332;stroke-opacity:1"
       id="path8025"
       sodipodi:cx="143.72411"
       sodipodi:cy="205.12573"
       sodipodi:expansion="1"
       sodipodi:revolution="3"
       sodipodi:radius="1.1767423"
       sodipodi:argument="-18.738899"
       sodipodi:t0="0"
       d="m 143.72411,205.12573 c 0.0586,0.007 0.0201,0.0823 -0.0108,0.0975 -0.0839,0.0412 -0.16845,-0.0409 -0.1841,-0.11912 -0.028,-0.13984 0.0956,-0.2577 0.22741,-0.27072 0.19347,-0.0191 0.34863,0.1506 0.35736,0.3357 0.0117,0.24671 -0.20571,0.44018 -0.44399,0.44399 -0.29985,0.005 -0.53207,-0.26086 -0.53063,-0.55228 0.002,-0.35296 0.31602,-0.62414 0.66058,-0.61726 0.40605,0.008 0.71632,0.37119 0.70389,0.76886 -0.0144,0.45914 -0.42636,0.80859 -0.87716,0.79053 -0.51222,-0.0205 -0.9009,-0.48154 -0.87716,-0.98545 0.0266,-0.56531 0.53673,-0.99325 1.09375,-0.96379 0.61839,0.0327 1.08564,0.59191 1.05042,1.20203" />
    <path
       sodipodi:type="spiral"
       style="fill:none;fill-rule:evenodd;stroke:#ffff00;stroke-width:0.26458332;stroke-opacity:1"
       id="path8027"
       sodipodi:cx="142.03476"
       sodipodi:cy="220.19986"
       sodipodi:expansion="1"
       sodipodi:revolution="3"
       sodipodi:radius="1.2328088"
       sodipodi:argument="-16.029715"
       sodipodi:t0="0"
       d="m 142.03476,220.19986 c -0.0586,0.0196 -0.0553,-0.0694 -0.0325,-0.0975 0.0618,-0.076 0.17821,-0.035 0.22741,0.0325 0.088,0.12075 0.0222,0.2871 -0.0975,0.35737 -0.17564,0.10311 -0.39773,0.01 -0.48731,-0.16244 -0.11939,-0.22956 0.002,-0.50903 0.22741,-0.61726 0.28312,-0.1362 0.62064,0.0145 0.74721,0.29238 0.1533,0.33651 -0.0266,0.73244 -0.35736,0.87716 -0.3898,0.17056 -0.84434,-0.0386 -1.00711,-0.42233 -0.18792,-0.44304 0.0506,-0.95633 0.48731,-1.13706 0.49625,-0.20536 1.06837,0.0625 1.26701,0.55229 0.22285,0.54942 -0.0745,1.18044 -0.61726,1.39695 -0.60259,0.24038 -1.29254,-0.0864 -1.52691,-0.68223" />
    <path
       sodipodi:type="spiral"
       style="fill:none;fill-rule:evenodd;stroke:#fff900;stroke-width:0.26458332;stroke-opacity:1"
       id="path8031"
       sodipodi:cx="143.59416"
       sodipodi:cy="224.35825"
       sodipodi:expansion="1"
       sodipodi:revolution="3"
       sodipodi:radius="1.2994946"
       sodipodi:argument="-18.849556"
       sodipodi:t0="0"
       d="m 143.59416,224.35825 c 0.0652,0 0.0322,0.0878 0,0.10829 -0.0871,0.0554 -0.18987,-0.0244 -0.21658,-0.10829 -0.0478,-0.15008 0.0735,-0.29451 0.21658,-0.32488 0.21002,-0.0446 0.401,0.12278 0.43317,0.32488 0.0429,0.26936 -0.17211,0.50821 -0.43317,0.54145 -0.32852,0.0418 -0.61579,-0.22142 -0.64975,-0.54145 -0.0411,-0.38761 0.27074,-0.72357 0.64975,-0.75804 0.44665,-0.0406 0.83148,0.32004 0.86633,0.75804 0.0402,0.50568 -0.36935,0.93946 -0.86633,0.97462 -0.5647,0.0399 -1.04752,-0.41866 -1.08291,-0.97462 -0.0397,-0.62371 0.46796,-1.15562 1.08291,-1.19121 0.68271,-0.0395 1.26374,0.51727 1.2995,1.19121" />
    <path
       sodipodi:type="spiral"
       style="fill:none;fill-rule:evenodd;stroke:#ffff00;stroke-width:0.26458332;stroke-opacity:1"
       id="path8033"
       sodipodi:cx="155.93935"
       sodipodi:cy="239.69228"
       sodipodi:expansion="1"
       sodipodi:revolution="3"
       sodipodi:radius="1.3059758"
       sodipodi:argument="-17.17909"
       sodipodi:t0="0"
       d="m 155.93935,239.69228 c -0.007,0.0651 -0.091,0.0234 -0.10829,-0.0108 -0.0468,-0.0927 0.0434,-0.18744 0.12994,-0.20576 0.15486,-0.0328 0.28716,0.10293 0.30322,0.24907 0.0236,0.21448 -0.16288,0.38873 -0.36819,0.40068 -0.27365,0.0159 -0.49101,-0.22292 -0.49814,-0.48731 -0.009,-0.3327 0.283,-0.59365 0.60643,-0.5956 0.39172,-0.002 0.6965,0.34309 0.69306,0.72555 -0.004,0.45071 -0.40319,0.79947 -0.84467,0.79053 -0.5097,-0.0103 -0.90253,-0.4633 -0.88798,-0.9638 0.0165,-0.56869 0.5234,-1.00565 1.08291,-0.98545 0.62768,0.0227 1.10881,0.58353 1.08291,1.20204 -0.0288,0.68666 -0.64364,1.21201 -1.32115,1.18037" />
    <path
       sodipodi:type="spiral"
       style="fill:none;fill-rule:evenodd;stroke:#ffff00;stroke-width:0.26458332;stroke-opacity:1"
       id="path8035"
       sodipodi:cx="146.8429"
       sodipodi:cy="236.96335"
       sodipodi:expansion="1"
       sodipodi:revolution="3"
       sodipodi:radius="1.4353386"
       sodipodi:argument="-15.798623"
       sodipodi:t0="0"
       d="m 146.8429,236.96335 c -0.0717,0.007 -0.0441,-0.0934 -0.0108,-0.11912 0.0903,-0.0697 0.2113,0.008 0.24907,0.0975 0.0675,0.16031 -0.0514,0.3313 -0.20576,0.37902 -0.22656,0.07 -0.45338,-0.095 -0.50897,-0.31405 -0.0741,-0.292 0.1385,-0.57624 0.42234,-0.63891 0.35719,-0.0789 0.69951,0.18198 0.76887,0.53062 0.084,0.42225 -0.22546,0.823 -0.63892,0.89882 -0.48726,0.0893 -0.94663,-0.2689 -1.02877,-0.74721 -0.0948,-0.55222 0.31234,-1.07035 0.8555,-1.15871 0.61718,-0.10041 1.19414,0.35577 1.28867,0.96379 0.10605,0.68211 -0.3992,1.31797 -1.07208,1.41861 -0.74704,0.11174 -1.44185,-0.44261 -1.54857,-1.18037" />
    <path
       sodipodi:type="spiral"
       style="fill:none;fill-rule:evenodd;stroke:#ffff00;stroke-width:0.26458332;stroke-opacity:1"
       id="path8037"
       sodipodi:cx="148.66217"
       sodipodi:cy="205.90543"
       sodipodi:expansion="1"
       sodipodi:revolution="3"
       sodipodi:radius="1.1178675"
       sodipodi:argument="-21.040602"
       sodipodi:t0="0"
       d="m 148.66217,205.90543 c -0.0326,-0.0456 0.0454,-0.0664 0.0758,-0.0541 0.0824,0.0333 0.0779,0.14511 0.0325,0.20575 -0.0812,0.10848 -0.24289,0.0958 -0.3357,0.0108 -0.13621,-0.12473 -0.11456,-0.34209 0.0108,-0.46565 0.16711,-0.16469 0.4418,-0.13364 0.5956,0.0325 0.19354,0.20905 0.1529,0.54176 -0.0541,0.72555 -0.25076,0.22259 -0.64186,0.17227 -0.8555,-0.0758 -0.25176,-0.29235 -0.1917,-0.74206 0.0975,-0.98545 0.33385,-0.28101 0.8423,-0.21119 1.1154,0.11912 0.3103,0.37531 0.23069,0.94259 -0.14078,1.24534 -0.41675,0.33965 -1.04291,0.25024 -1.3753,-0.16243 -0.36902,-0.45815 -0.26979,-1.14325 0.18409,-1.50525" />
    <path
       sodipodi:type="spiral"
       style="fill:none;fill-rule:evenodd;stroke:#fff900;stroke-width:0.26458332;stroke-opacity:1"
       id="path8039"
       sodipodi:cx="155.67944"
       sodipodi:cy="199.5379"
       sodipodi:expansion="1"
       sodipodi:revolution="3"
       sodipodi:radius="1.1767423"
       sodipodi:argument="-18.960213"
       sodipodi:t0="0"
       d="m 155.67944,199.5379 c 0.0586,-0.007 0.0377,0.0758 0.0108,0.0975 -0.0728,0.0586 -0.17332,-0.003 -0.20575,-0.0758 -0.058,-0.13029 0.0367,-0.2724 0.16244,-0.31404 0.18455,-0.0611 0.37317,0.0704 0.42233,0.24907 0.0655,0.23813 -0.10407,0.4746 -0.3357,0.53062 -0.29149,0.0705 -0.57636,-0.1377 -0.63892,-0.42233 -0.0758,-0.34473 0.17131,-0.67829 0.50897,-0.74721 0.39792,-0.0812 0.78033,0.20489 0.8555,0.5956 0.0868,0.45109 -0.23847,0.88246 -0.68223,0.96379 -0.50424,0.0924 -0.98464,-0.27204 -1.07209,-0.76887 -0.0981,-0.55736 0.30561,-1.08684 0.8555,-1.18037 0.61049,-0.10383 1.1891,0.33916 1.28867,0.94213" />
    <path
       sodipodi:type="spiral"
       style="fill:none;fill-rule:evenodd;stroke:#fff500;stroke-width:0.26458332;stroke-opacity:1"
       id="path8041"
       sodipodi:cx="146.71294"
       sodipodi:cy="200.5775"
       sodipodi:expansion="1"
       sodipodi:revolution="3"
       sodipodi:radius="1.2328088"
       sodipodi:argument="-16.029715"
       sodipodi:t0="0"
       d="m 146.71294,200.5775 c -0.0586,0.0196 -0.0553,-0.0694 -0.0325,-0.0975 0.0618,-0.0761 0.1782,-0.035 0.22741,0.0325 0.088,0.12074 0.0222,0.2871 -0.0975,0.35737 -0.17565,0.10311 -0.39774,0.01 -0.48731,-0.16244 -0.11939,-0.22956 0.002,-0.50903 0.22741,-0.61726 0.28312,-0.1362 0.62064,0.0145 0.74721,0.29238 0.15329,0.33651 -0.0266,0.73244 -0.35736,0.87716 -0.3898,0.17056 -0.84434,-0.0386 -1.00711,-0.42233 -0.18792,-0.44304 0.0506,-0.95633 0.48731,-1.13706 0.49624,-0.20536 1.06836,0.0625 1.26701,0.55228 0.22285,0.54943 -0.0745,1.18045 -0.61726,1.39696 -0.60259,0.24038 -1.29255,-0.0864 -1.52691,-0.68223" />
    <path
       sodipodi:type="spiral"
       style="fill:none;fill-rule:evenodd;stroke:#ffff00;stroke-width:0.26458332;stroke-opacity:1"
       id="path8048"
       sodipodi:cx="153.17754"
       sodipodi:cy="205.47942"
       sodipodi:expansion="1"
       sodipodi:revolution="3"
       sodipodi:radius="2.2943804"
       sodipodi:argument="-21.005178"
       sodipodi:t0="0"
       d="m 153.17754,205.47942 c -0.0635,-0.0959 0.098,-0.13293 0.15942,-0.10556 0.16655,0.0742 0.14917,0.30331 0.0517,0.4244 -0.17438,0.21661 -0.50518,0.17889 -0.68937,-0.002 -0.27032,-0.26574 -0.21011,-0.71001 0.0561,-0.95435 0.35476,-0.32565 0.91593,-0.24199 1.21932,0.10994 0.38179,0.44286 0.27424,1.12236 -0.1638,1.48429 -0.53053,0.43835 -1.3291,0.3067 -1.74927,-0.21767 -0.49516,-0.61795 -0.33929,-1.53602 0.27154,-2.01425 0.70522,-0.55213 1.74306,-0.37195 2.27922,0.32542 0.60922,0.79239 0.40469,1.95019 -0.37928,2.54419 -0.8795,0.66639 -2.15738,0.43747 -2.80917,-0.43315 -0.72361,-0.96656 -0.47028,-2.36462 0.48702,-3.07415" />
    <path
       sodipodi:type="spiral"
       style="fill:none;fill-rule:evenodd;stroke:#ffff00;stroke-width:0.26458332;stroke-opacity:1"
       id="path8052"
       sodipodi:cx="166.13376"
       sodipodi:cy="200.058"
       sodipodi:expansion="1"
       sodipodi:revolution="3"
       sodipodi:radius="1.151355"
       sodipodi:argument="-17.778107"
       sodipodi:t0="0"
       d="m 166.13376,200.058 c 0.0276,0.0507 -0.0547,0.0623 -0.0842,0.0459 -0.0801,-0.0442 -0.0616,-0.15803 -0.008,-0.2144 0.0965,-0.10083 0.26024,-0.0678 0.34458,0.0306 0.12377,0.14444 0.0746,0.36399 -0.0689,0.47475 -0.19132,0.14763 -0.46831,0.0817 -0.60493,-0.1072 -0.17191,-0.23778 -0.089,-0.57292 0.14549,-0.73511 0.28404,-0.19643 0.67767,-0.0964 0.86528,0.18378 0.2211,0.33018 0.10383,0.78252 -0.22206,0.99545 -0.37625,0.24585 -0.88744,0.1113 -1.12563,-0.26034 -0.27065,-0.42229 -0.11878,-0.9924 0.29864,-1.25581 0.46828,-0.2955 1.09739,-0.1263 1.38598,0.33692 0.32038,0.51427 0.13382,1.20242 -0.37521,1.51616" />
    <path
       sodipodi:type="spiral"
       style="fill:none;fill-rule:evenodd;stroke:#ffff00;stroke-width:0.26458332;stroke-opacity:1"
       id="path8054"
       sodipodi:cx="178.81432"
       sodipodi:cy="207.22528"
       sodipodi:expansion="1"
       sodipodi:revolution="3"
       sodipodi:radius="1.2259407"
       sodipodi:argument="-17.505558"
       sodipodi:t0="0"
       d="m 178.81432,207.22528 c 0.0138,0.0599 -0.0739,0.0482 -0.0996,0.023 -0.0695,-0.0683 -0.0179,-0.17971 0.0536,-0.22206 0.12783,-0.0758 0.28631,0.005 0.34458,0.13017 0.0855,0.18361 -0.0278,0.39467 -0.20675,0.4671 -0.23851,0.0966 -0.50368,-0.0504 -0.58961,-0.28332 -0.10814,-0.29311 0.0729,-0.61303 0.35989,-0.71213 0.34758,-0.12003 0.72257,0.0954 0.83465,0.43647 0.13209,0.40196 -0.11781,0.83221 -0.51304,0.95716 -0.4563,0.14427 -0.94194,-0.14023 -1.07968,-0.58961 -0.15651,-0.51062 0.16263,-1.05173 0.66619,-1.2022 0.56491,-0.16881 1.16155,0.18502 1.32472,0.74276 0.18114,0.61919 -0.20741,1.27141 -0.81934,1.44724" />
    <path
       sodipodi:type="spiral"
       style="fill:none;fill-rule:evenodd;stroke:#fffc00;stroke-width:0.26458332;stroke-opacity:1"
       id="path8056"
       sodipodi:cx="172.38216"
       sodipodi:cy="225.14348"
       sodipodi:expansion="1"
       sodipodi:revolution="3"
       sodipodi:radius="1.2085998"
       sodipodi:argument="-17.43141"
       sodipodi:t0="0"
       d="m 172.38216,225.14348 c 0.009,0.0599 -0.0762,0.042 -0.0995,0.0153 -0.0633,-0.0722 -0.004,-0.17799 0.0689,-0.2144 0.1312,-0.0651 0.28111,0.0259 0.32926,0.15314 0.0707,0.18676 -0.0562,0.38598 -0.23737,0.44413 -0.24155,0.0775 -0.49152,-0.0863 -0.55899,-0.32161 -0.0849,-0.29607 0.11645,-0.59737 0.40584,-0.67384 0.35048,-0.0926 0.70342,0.14654 0.7887,0.49006 0.10051,0.40484 -0.1766,0.80959 -0.5743,0.90357 -0.45915,0.10851 -0.91582,-0.20666 -1.01842,-0.65853 -0.11658,-0.51344 0.2367,-1.02213 0.74276,-1.13329 0.56772,-0.1247 1.12846,0.26674 1.24815,0.827 0.13287,0.62198 -0.29677,1.23483 -0.91123,1.363" />
    <path
       sodipodi:type="spiral"
       style="fill:none;fill-rule:evenodd;stroke:#ffff00;stroke-width:0.26458332;stroke-opacity:1"
       id="path8058"
       sodipodi:cx="172.0146"
       sodipodi:cy="201.16066"
       sodipodi:expansion="1"
       sodipodi:revolution="3"
       sodipodi:radius="1.2085998"
       sodipodi:argument="-20.573002"
       sodipodi:t0="0"
       d="m 172.0146,201.16066 c -0.009,-0.0599 0.0762,-0.042 0.0995,-0.0153 0.0633,0.0722 0.004,0.17799 -0.0689,0.2144 -0.1312,0.0651 -0.28111,-0.0259 -0.32926,-0.15315 -0.0707,-0.18675 0.0562,-0.38598 0.23737,-0.44412 0.24155,-0.0775 0.49152,0.0863 0.55899,0.32161 0.0849,0.29607 -0.11645,0.59737 -0.40584,0.67384 -0.35048,0.0926 -0.70342,-0.14654 -0.78871,-0.49007 -0.1005,-0.40483 0.17661,-0.80958 0.5743,-0.90356 0.45916,-0.10851 0.91583,0.20666 1.01843,0.65853 0.11658,0.51344 -0.2367,1.02212 -0.74276,1.13328 -0.56772,0.12471 -1.12846,-0.26673 -1.24815,-0.82699 -0.13287,-0.62199 0.29677,-1.23483 0.91123,-1.36301" />
    <path
       sodipodi:type="spiral"
       style="fill:none;fill-rule:evenodd;stroke:#ffff00;stroke-width:0.26458332;stroke-opacity:1"
       id="path8062"
       sodipodi:cx="139.02675"
       sodipodi:cy="215.67899"
       sodipodi:expansion="1"
       sodipodi:revolution="3"
       sodipodi:radius="1.1026577"
       sodipodi:argument="-20.420353"
       sodipodi:t0="0"
       d="m 139.02675,215.67899 c 0,-0.0553 0.0745,-0.0273 0.0919,0 0.0471,0.0739 -0.0207,0.16111 -0.0919,0.18377 -0.12735,0.0405 -0.2499,-0.0623 -0.27567,-0.18377 -0.0378,-0.17821 0.10419,-0.34026 0.27567,-0.36756 0.22856,-0.0364 0.43123,0.14604 0.45944,0.36756 0.0355,0.27875 -0.18788,0.52251 -0.45944,0.55132 -0.32889,0.0349 -0.61397,-0.22972 -0.64322,-0.55132 -0.0345,-0.379 0.27157,-0.70553 0.64322,-0.73511 0.42908,-0.0342 0.79716,0.31341 0.82699,0.73511 0.0339,0.47916 -0.35524,0.88884 -0.82699,0.91888 -0.52923,0.0337 -0.98057,-0.39708 -1.01077,-0.91888 -0.0335,-0.5793 0.43891,-1.07232 1.01077,-1.10266" />
    <path
       sodipodi:type="spiral"
       style="fill:none;fill-rule:evenodd;stroke:#ffff00;stroke-width:0.26458332;stroke-opacity:1"
       id="path8064"
       sodipodi:cx="169.71741"
       sodipodi:cy="205.66319"
       sodipodi:expansion="1"
       sodipodi:revolution="3"
       sodipodi:radius="1.2897115"
       sodipodi:argument="-21.919842"
       sodipodi:t0="0"
       d="m 169.71741,205.66319 c -0.0645,-0.005 -0.0256,-0.0892 0.008,-0.1072 0.0902,-0.0487 0.18625,0.0376 0.20675,0.12252 0.0367,0.15195 -0.0936,0.28635 -0.23737,0.30629 -0.21106,0.0293 -0.38829,-0.1499 -0.40584,-0.35224 -0.0234,-0.26968 0.20631,-0.49094 0.46709,-0.50538 0.32818,-0.0182 0.59395,0.26274 0.60493,0.58196 0.0133,0.38661 -0.31917,0.69715 -0.69681,0.70447 -0.44504,0.009 -0.80049,-0.37562 -0.80403,-0.81168 -0.004,-0.50344 0.43207,-0.9039 0.92654,-0.90356 0.56185,3.8e-4 1.00739,0.48852 1.00312,1.0414 -0.005,0.62024 -0.54498,1.1109 -1.15626,1.10265 -0.67865,-0.009 -1.21447,-0.60142 -1.20221,-1.27111" />
    <path
       sodipodi:type="spiral"
       style="fill:none;fill-rule:evenodd;stroke:#ffff00;stroke-width:0.26458332;stroke-opacity:1"
       id="path8066"
       sodipodi:cx="141.50774"
       sodipodi:cy="229.73788"
       sodipodi:expansion="1"
       sodipodi:revolution="3"
       sodipodi:radius="1.1945459"
       sodipodi:argument="-15.707963"
       sodipodi:t0="0"
       d="m 141.50774,229.73788 c -0.0599,0 -0.0296,-0.0807 0,-0.0995 0.0801,-0.051 0.17454,0.0224 0.19909,0.0995 0.0439,0.13796 -0.0675,0.27073 -0.19909,0.29864 -0.19306,0.041 -0.36862,-0.11286 -0.39819,-0.29864 -0.0394,-0.2476 0.15821,-0.46717 0.39819,-0.49772 0.30198,-0.0385 0.56605,0.20354 0.59727,0.49772 0.0378,0.3563 -0.24887,0.66514 -0.59727,0.69682 -0.41058,0.0373 -0.76433,-0.2942 -0.79637,-0.69682 -0.037,-0.46484 0.33953,-0.86359 0.79637,-0.8959 0.51909,-0.0367 0.96292,0.38484 0.99545,0.8959 0.0365,0.57334 -0.43017,1.06229 -0.99545,1.095 -0.62758,0.0363 -1.16168,-0.47548 -1.19455,-1.095" />
    <path
       sodipodi:type="spiral"
       style="fill:none;fill-rule:evenodd;stroke:#ffff00;stroke-width:0.26458332;stroke-opacity:1"
       id="path8068"
       sodipodi:cx="157.68005"
       sodipodi:cy="234.97549"
       sodipodi:expansion="1"
       sodipodi:revolution="3"
       sodipodi:radius="1.1365936"
       sodipodi:argument="-15.952942"
       sodipodi:t0="0"
       d="m 157.68005,234.97549 c -0.0553,0.0138 -0.0459,-0.0677 -0.023,-0.0919 0.0622,-0.0655 0.16629,-0.0196 0.20675,0.0459 0.0724,0.11721 1.3e-4,0.26548 -0.11486,0.32161 -0.16875,0.0824 -0.36631,-0.0191 -0.43647,-0.18378 -0.0935,-0.21946 0.0382,-0.46774 0.25269,-0.55133 0.26989,-0.10518 0.56949,0.0573 0.66619,0.32161 0.11712,0.32017 -0.0762,0.6714 -0.39052,0.78105 -0.37038,0.12922 -0.77342,-0.0952 -0.89591,-0.45944 -0.14142,-0.42055 0.11411,-0.87551 0.52836,-1.01077 0.47068,-0.15368 0.97765,0.13303 1.12563,0.59727 0.166,0.52081 -0.15194,1.07984 -0.66619,1.24049 -0.57092,0.17836 -1.18205,-0.17083 -1.35535,-0.7351" />
    <path
       sodipodi:type="spiral"
       style="fill:none;fill-rule:evenodd;stroke:#ffff00;stroke-width:0.26458332;stroke-opacity:1"
       id="path8070"
       sodipodi:cx="176.51712"
       sodipodi:cy="228.81898"
       sodipodi:expansion="1"
       sodipodi:revolution="3"
       sodipodi:radius="1.0273407"
       sodipodi:argument="-16.171612"
       sodipodi:t0="0"
       d="m 176.51712,228.81898 c -0.0461,0.023 -0.0538,-0.0507 -0.0383,-0.0766 0.042,-0.07 0.14289,-0.0499 0.19144,0 0.0868,0.0892 0.0522,0.23423 -0.0383,0.3063 -0.13275,0.10576 -0.32696,0.0549 -0.42115,-0.0766 -0.12555,-0.17531 -0.058,-0.42021 0.11486,-0.53601 0.21751,-0.14573 0.51371,-0.0611 0.65087,0.15314 0.16612,0.25954 0.0644,0.60736 -0.19143,0.76574 -0.30147,0.18664 -0.7011,0.0677 -0.8806,-0.22972 -0.20724,-0.34334 -0.071,-0.79489 0.26801,-0.99546 0.38518,-0.22789 0.88872,-0.0743 1.11031,0.3063 0.2486,0.42699 0.0777,0.98259 -0.34457,1.22517 -0.46879,0.26932 -1.07648,0.081 -1.34004,-0.38286" />
    <path
       style="fill:#beff00;fill-opacity:1;fill-rule:nonzero;stroke:none;stroke-width:1;stroke-miterlimit:4;stroke-dasharray:none;stroke-dashoffset:0;stroke-opacity:1"
       id="path8160"
       d="m 173.44487,147.85568 c -0.0213,0.14295 -0.0356,0.28714 -0.0641,0.42883 -0.21719,1.0804 -0.56719,2.14353 -0.90864,3.18855 -0.43935,1.34471 -0.78487,2.29845 -1.26067,3.64877 -0.78101,2.12881 -1.62088,4.23556 -2.46451,6.34014 -0.50359,1.25627 -1.04057,2.53439 -1.50588,3.80682 -0.20014,0.54729 -0.3783,1.10237 -0.56745,1.65356 -0.48093,1.53057 -0.9335,3.1955 -0.28583,4.75287 0.29117,0.70012 0.5146,0.86845 0.99777,1.42235 0.20316,0.17059 0.40632,0.34118 0.60949,0.51177 0,0 -1.58529,1.16725 -1.58529,1.16725 v 0 c -0.20042,-0.18468 -0.40083,-0.36937 -0.60124,-0.55405 -0.46277,-0.5718 -0.73341,-0.81269 -0.99357,-1.52748 -0.11628,-0.3195 -0.20043,-0.65495 -0.23048,-0.99362 -0.0683,-0.76997 0.1108,-1.83241 0.30591,-2.55263 0.13901,-0.51315 0.34376,-1.00619 0.51564,-1.50928 0.2187,-0.56964 0.42859,-1.14275 0.65611,-1.70894 0.50465,-1.25578 1.11886,-2.63004 1.63287,-3.87772 0.84938,-2.06171 1.65678,-4.14321 2.34671,-6.26431 0.45163,-1.48793 0.63854,-2.0197 0.99197,-3.48459 0.21161,-0.87704 0.45971,-1.96723 0.47569,-2.88455 0.002,-0.1135 -0.019,-0.22624 -0.0285,-0.33936 0,0 1.96399,-1.22438 1.96399,-1.22438 z"
       inkscape:connector-curvature="0" />
    <path
       style="fill:#beff00;fill-opacity:1;fill-rule:nonzero;stroke:none;stroke-width:1;stroke-miterlimit:4;stroke-dasharray:none;stroke-dashoffset:0;stroke-opacity:1"
       id="path8162"
       d="m 173.69588,160.50245 c 0.0489,0.0831 0.0936,0.16893 0.14678,0.24941 0.31089,0.47042 0.45357,0.61962 0.81579,1.11392 0.44725,0.61036 0.95796,1.32873 1.34804,1.96906 0.25499,0.41857 0.48366,0.85262 0.72548,1.27894 0.21553,0.48465 0.45239,0.96036 0.64657,1.45395 0.72446,1.84149 1.33178,4.02594 1.07162,6.02184 -0.0555,0.42552 -0.19694,0.83535 -0.29542,1.25302 -0.17015,0.35515 -0.30147,0.73167 -0.51044,1.06545 -0.39244,0.6268 -0.88833,1.08861 -1.50455,1.48667 -0.79613,0.51426 -1.58578,1.04834 -2.43786,1.46338 -0.54513,0.26552 -1.36264,0.19967 -1.93764,0.19884 -0.30167,-0.0515 -0.60334,-0.103 -0.90501,-0.1545 0,0 1.48108,-1.22295 1.48108,-1.22295 v 0 c 0.28903,0.0477 0.57805,0.0954 0.86708,0.14305 0.30665,-0.005 0.61556,0.0223 0.91995,-0.0152 0.31639,-0.039 0.71949,-0.45054 0.9323,-0.21319 0.18686,0.20841 -0.85333,0.61632 -0.57343,0.61346 0.35315,-0.004 0.59923,-0.38014 0.86174,-0.6164 0.78593,-0.70733 0.81753,-0.96068 1.32308,-1.89087 0.34104,-1.18432 0.48699,-1.38386 0.47861,-2.65965 -0.0104,-1.57935 -0.46,-3.15216 -1.06998,-4.59681 -0.20283,-0.48036 -0.45814,-0.93682 -0.68721,-1.40522 -0.26299,-0.40619 -0.50858,-0.82419 -0.78897,-1.21856 -0.79548,-1.11885 -1.76176,-2.10707 -2.823,-2.97379 0,0 1.91539,-1.34385 1.91539,-1.34385 z"
       inkscape:connector-curvature="0" />
    <path
       style="fill:#beff00;fill-opacity:1;fill-rule:nonzero;stroke:none;stroke-width:1;stroke-miterlimit:4;stroke-dasharray:none;stroke-dashoffset:0;stroke-opacity:1"
       id="path8186"
       d="m 184.57887,152.9068 c 0.0196,0.0834 0.0334,0.1684 0.0587,0.25026 0.22944,0.74177 0.55604,1.45691 0.83568,2.17977 0.49532,1.28034 0.43375,1.14271 0.90681,2.502 0.65363,2.02339 1.09776,4.11961 1.31587,6.23568 0.13132,1.27398 0.10699,1.67866 0.11811,2.93018 -0.0366,1.6354 -0.2022,3.27587 -0.66237,4.84952 0,0 -1.8708,1.06007 -1.8708,1.06007 v 0 c 0.171,-0.40962 0.24815,-0.57274 0.39001,-1.0171 0.41691,-1.30592 0.63342,-2.66521 0.73195,-4.03036 0.046,-1.2836 0.097,-1.65863 -0.0157,-2.96651 -0.18082,-2.09804 -0.66682,-4.16862 -1.38825,-6.1441 -0.17861,-0.42738 -0.34624,-0.85952 -0.53584,-1.28214 -0.51515,-1.14834 -1.12456,-2.25693 -1.85074,-3.28555 0,0 1.96657,-1.28172 1.96657,-1.28172 z"
       inkscape:connector-curvature="0" />
    <path
       style="fill:#beff00;fill-opacity:1;fill-rule:nonzero;stroke:none;stroke-width:1;stroke-miterlimit:4;stroke-dasharray:none;stroke-dashoffset:0;stroke-opacity:1"
       id="path8222"
       d="m 162.50149,150.99668 c -1.05976,1.02191 -1.95449,2.20811 -2.7618,3.43564 -0.26124,0.39721 -0.50565,0.80523 -0.75847,1.20784 -1.26835,2.2059 -1.96592,4.63966 -2.22732,7.16382 -0.0529,0.51049 -0.0671,1.02424 -0.1007,1.53636 -0.0255,1.77083 0.16097,3.54196 0.52102,5.27527 0.17133,0.82478 0.2887,1.19984 0.51014,1.99876 0.20874,0.80152 0.52366,1.56462 0.853,2.32175 0,0 -1.66662,1.11036 -1.66662,1.11036 v 0 c -0.2889,-0.79372 -0.56029,-1.59303 -0.75484,-2.41642 -0.076,-0.32791 -0.15948,-0.65418 -0.22808,-0.98372 -0.44349,-2.1303 -0.64076,-4.31283 -0.5897,-6.48775 0.0338,-0.5166 0.0503,-1.03462 0.10139,-1.5498 0.2539,-2.56227 0.87682,-4.91581 2.12221,-7.18079 0.89228,-1.5061 1.80805,-3.00123 2.90162,-4.37244 0,0 2.07815,-1.05888 2.07815,-1.05888 z"
       inkscape:connector-curvature="0" />
    <path
       style="fill:#beff00;fill-opacity:1;fill-rule:nonzero;stroke:none;stroke-width:1;stroke-miterlimit:4;stroke-dasharray:none;stroke-dashoffset:0;stroke-opacity:1"
       id="path8294"
       d="m 164.96634,157.16428 c -0.62125,0.57482 -1.23084,1.17618 -1.7521,1.84531 -0.1537,0.19728 -0.29148,0.40647 -0.43722,0.6097 -0.70046,1.1582 -1.18039,2.4567 -1.34103,3.80497 -0.032,0.26844 -0.0375,0.53938 -0.0562,0.80907 0.0111,0.95897 0.10287,1.98106 0.52111,2.86152 0.0417,0.0877 0.0966,0.16856 0.14493,0.25285 0.12409,0.18878 0.27832,0.3105 0.48996,0.3781 0,0 -1.97732,1.22108 -1.97732,1.22108 v 0 c -0.21888,-0.13923 -0.37858,-0.31691 -0.48467,-0.55837 -0.0389,-0.0997 -0.0848,-0.19704 -0.1168,-0.2992 -0.0774,-0.24699 -0.15847,-0.66003 -0.19795,-0.90188 -0.11479,-0.70328 -0.18284,-1.41547 -0.15813,-2.1288 0.0194,-0.27644 0.027,-0.55396 0.058,-0.82934 0.15355,-1.3608 0.59212,-2.67144 1.25985,-3.86498 0.13399,-0.20502 0.25883,-0.41633 0.40199,-0.61504 0.44466,-0.61726 0.98889,-1.15733 1.45146,-1.75949 0,0 2.1942,-0.82549 2.1942,-0.82549 z"
       inkscape:connector-curvature="0" />
    <path
       style="fill:#beff00;fill-opacity:1;fill-rule:nonzero;stroke:none;stroke-width:1;stroke-miterlimit:4;stroke-dasharray:none;stroke-dashoffset:0;stroke-opacity:1"
       id="path8370"
       d="m 181.47333,159.52836 c 0.30397,0.70118 0.60336,1.40493 0.80962,2.14247 0.0722,0.2581 0.12978,0.52007 0.19467,0.78011 0.25059,1.15115 0.36765,2.32847 0.39677,3.50529 0.015,0.60801 -0.001,0.84597 -0.0212,1.43782 -0.0142,0.46025 -0.059,0.91848 -0.10371,1.37643 0,0 -1.42644,0.45152 -1.42644,0.45152 v 0 c 0.10735,-0.46699 0.20483,-0.93614 0.26115,-1.41265 0.0627,-0.61437 0.0956,-0.81824 0.10684,-1.45343 0.0214,-1.16908 -0.10127,-2.3382 -0.40966,-3.46781 -0.0789,-0.25163 -0.14797,-0.50647 -0.23643,-0.75487 -0.25011,-0.70231 -0.60821,-1.42182 -1.10316,-1.98604 0,0 1.53171,-0.61882 1.53171,-0.61882 z"
       inkscape:connector-curvature="0" />
    <path
       sodipodi:type="spiral"
       style="fill:none;fill-rule:evenodd;stroke:#000000;stroke-width:0.26458332"
       id="path8378"
       sodipodi:cx="192.3252"
       sodipodi:cy="88.561066"
       sodipodi:expansion="1"
       sodipodi:revolution="3"
       sodipodi:radius="15.109942"
       sodipodi:argument="-19.561914"
       sodipodi:t0="0"
       d="m 192.3252,88.561066 c 0.57336,-0.495176 0.95036,0.528575 0.82301,0.952962 -0.34511,1.15006 -1.85627,1.228427 -2.72894,0.693066 -1.561,-0.957636 -1.59166,-3.150054 -0.56312,-4.504914 1.50944,-1.988312 4.46193,-1.967149 6.28089,-0.433171 2.42439,2.044552 2.34794,5.780292 0.30323,8.056866 -2.57307,2.864836 -7.10177,2.731497 -9.83285,0.173275 -3.30769,-3.098349 -3.11665,-8.424998 -0.0433,-11.608818 3.62181,-3.752021 9.74932,-3.502823 13.38479,0.08662 4.1973,4.144155 3.88966,11.07438 -0.21657,15.16077 -4.66576,4.643217 -12.39995,4.276967 -16.93674,-0.346516 -5.0896,-5.186854 -4.66462,-13.725894 0.47646,-18.712722 5.70758,-5.536325 15.05212,-5.052525 20.4887,0.606411"
       transform="rotate(-47.396973,198.90865,86.728753)" />
    <path
       sodipodi:type="star"
       style="fill:#008080;fill-opacity:0;fill-rule:nonzero;stroke:none;stroke-width:1;stroke-miterlimit:4;stroke-dasharray:none;stroke-dashoffset:0;stroke-opacity:1"
       id="path8392"
       sodipodi:sides="5"
       sodipodi:cx="21.166666"
       sodipodi:cy="167.73215"
       sodipodi:r1="28.082254"
       sodipodi:r2="14.041127"
       sodipodi:arg1="-2.545931"
       sodipodi:arg2="-1.9176124"
       inkscape:flatsided="false"
       inkscape:rounded="0"
       inkscape:randomized="0"
       d="m -2.0791911,151.97641 18.4732051,2.55062 12.57388,-13.7718 3.282752,18.35725 16.983301,7.70275 -16.444353,8.79478 -2.077622,18.53237 -13.445921,-12.92178 -18.267343,3.75088 8.1343174,-16.78088 z"
       inkscape:transform-center-x="-2.4107122"
       inkscape:transform-center-y="-0.28334435" />
    <path
       sodipodi:type="star"
       style="opacity:1;fill:url(#linearGradient9769);fill-opacity:1;fill-rule:nonzero;stroke:#000000;stroke-width:1;stroke-miterlimit:4;stroke-dasharray:none;stroke-dashoffset:0;stroke-opacity:1"
       id="path8422"
       sodipodi:sides="5"
       sodipodi:cx="19.49242"
       sodipodi:cy="157.85221"
       sodipodi:r1="14.961693"
       sodipodi:r2="7.4808459"
       sodipodi:arg1="1.8705724"
       sodipodi:arg2="2.4988909"
       inkscape:flatsided="false"
       inkscape:rounded="0"
       inkscape:randomized="0"
       d="m 15.074138,172.14664 -1.569981,-9.81071 -8.971882,-4.26854 8.845397,-4.52482 1.287152,-9.85181 7.036737,7.01422 9.767386,-1.82022 -4.496455,8.85985 4.749425,8.72685 -9.815699,-1.53853 z"
       inkscape:transform-center-x="1.3653243"
       inkscape:transform-center-y="0.066495242" />
    <path
       sodipodi:type="star"
       style="fill:url(#linearGradient8671-6);fill-opacity:1;fill-rule:nonzero;stroke:#000000;stroke-width:1;stroke-miterlimit:4;stroke-dasharray:none;stroke-dashoffset:0;stroke-opacity:1"
       id="path8422-3"
       sodipodi:sides="5"
       sodipodi:cx="19.49242"
       sodipodi:cy="157.85221"
       sodipodi:r1="14.961693"
       sodipodi:r2="7.4808459"
       sodipodi:arg1="1.8705724"
       sodipodi:arg2="2.4988909"
       inkscape:flatsided="false"
       inkscape:rounded="0"
       inkscape:randomized="0"
       d="m 15.074138,172.14664 -1.569981,-9.81071 -8.971882,-4.26854 8.845397,-4.52482 1.287152,-9.85181 7.036737,7.01422 9.767386,-1.82022 -4.496455,8.85985 4.749425,8.72685 -9.815699,-1.53853 z"
       inkscape:transform-center-x="1.3653243"
       inkscape:transform-center-y="0.066495242" />
    <path
       sodipodi:type="star"
       style="fill:url(#linearGradient8671-6-2);fill-opacity:1;fill-rule:nonzero;stroke:#000000;stroke-width:1;stroke-miterlimit:4;stroke-dasharray:none;stroke-dashoffset:0;stroke-opacity:1"
       id="path8422-3-8"
       sodipodi:sides="5"
       sodipodi:cx="19.49242"
       sodipodi:cy="157.85221"
       sodipodi:r1="14.961693"
       sodipodi:r2="7.4808459"
       sodipodi:arg1="1.8705724"
       sodipodi:arg2="2.4988909"
       inkscape:flatsided="false"
       inkscape:rounded="0"
       inkscape:randomized="0"
       d="m 15.074138,172.14664 -1.569981,-9.81071 -8.971882,-4.26854 8.845397,-4.52482 1.287152,-9.85181 7.036737,7.01422 9.767386,-1.82022 -4.496455,8.85985 4.749425,8.72685 -9.815699,-1.53853 z"
       inkscape:transform-center-x="1.3653243"
       inkscape:transform-center-y="0.066495242" />
    <path
       sodipodi:type="star"
       style="opacity:1;fill:url(#meshgradient10777);fill-opacity:1;fill-rule:nonzero;stroke:none;stroke-width:1;stroke-miterlimit:4;stroke-dasharray:none;stroke-dashoffset:0;stroke-opacity:1"
       id="path9806"
       sodipodi:sides="5"
       sodipodi:cx="194.92418"
       sodipodi:cy="43.858456"
       sodipodi:r1="12.572232"
       sodipodi:r2="6.2861161"
       sodipodi:arg1="-1.4464413"
       sodipodi:arg2="-0.8181228"
       inkscape:flatsided="false"
       inkscape:rounded="0"
       inkscape:randomized="0"
       d="m 196.48357,31.383308 2.73775,7.887139 8.04931,2.216048 -6.65511,5.041013 0.37979,8.340143 -6.85083,-4.771621 -7.81459,2.938444 2.42106,-7.990038 -5.20946,-6.524085 8.34712,-0.166493 z"
       inkscape:transform-center-x="-0.045408045"
       inkscape:transform-center-y="1.1572713"
       transform="rotate(-43.794741,190.94626,40.963859)" />
    <path
       sodipodi:type="spiral"
       style="fill:none;fill-rule:evenodd;stroke:#000000;stroke-width:0.26458332"
       id="path10871"
       sodipodi:cx="195.44394"
       sodipodi:cy="65.501915"
       sodipodi:expansion="1"
       sodipodi:revolution="3"
       sodipodi:radius="12.238471"
       sodipodi:argument="-17.346498"
       sodipodi:t0="0"
       d="m 195.44394,65.501915 c 0.0415,0.61221 -0.80476,0.35803 -1.01753,0.06903 -0.57662,-0.783166 0.10813,-1.799672 0.87946,-2.104099 1.37974,-0.54455 2.81409,0.502652 3.19067,1.82797 0.55264,1.944958 -0.89804,3.846179 -2.77647,4.277231 -2.50365,0.574526 -4.88505,-1.293159 -5.3638,-3.724973 -0.60245,-3.060189 1.688,-5.927286 4.67348,-6.450363 3.61581,-0.633516 6.97143,2.082656 7.53692,5.621976 0.66642,4.170967 -2.47719,8.016787 -6.57047,8.623495 -4.72586,0.700468 -9.06294,-2.871651 -9.71006,-7.518979 -0.73531,-5.28059 3.26605,-10.109647 8.46748,-10.796626 5.83521,-0.770687 11.15676,3.660418 11.88319,9.415982 0.80647,6.389766 -4.05476,12.204191 -10.36448,12.969757" />
    <text
       xml:space="preserve"
       style="font-style:normal;font-weight:normal;font-size:2.82222223px;line-height:1.25;font-family:sans-serif;letter-spacing:0px;word-spacing:0px;fill:#000000;fill-opacity:1;stroke:none;stroke-width:0.26458332"
       x="42.636101"
       y="39.7132"
       id="text10875"><tspan
         sodipodi:role="line"
         id="tspan10873"
         x="42.636101"
         y="42.210205"
         style="stroke-width:0.26458332"></tspan></text>
    <text
       xml:space="preserve"
       style="font-style:normal;font-weight:normal;font-size:7.05555534px;line-height:1.25;font-family:sans-serif;letter-spacing:0px;word-spacing:0px;fill:#000000;fill-opacity:1;stroke:none;stroke-width:0.26458332"
       x="43.719234"
       y="44.174572"
       id="text10879"><tspan
         sodipodi:role="line"
         id="tspan10877"
         x="43.719234"
         y="44.174572"
         style="font-style:normal;font-variant:normal;font-weight:normal;font-stretch:normal;font-size:11.28888893px;font-family:Karumbi;-inkscape-font-specification:Karumbi;stroke-width:0.26458332">THIS IS WHAT I DO</tspan></text>
    <text
       xml:space="preserve"
       style="font-style:normal;font-variant:normal;font-weight:normal;font-stretch:normal;font-size:7.05555534px;line-height:1.25;font-family:Kayrawan;-inkscape-font-specification:Kayrawan;letter-spacing:0px;word-spacing:0px;fill:#ffff00;fill-opacity:1;stroke:none;stroke-width:0.26458332"
       x="77.252525"
       y="85.685913"
       id="text10883"><tspan
         sodipodi:role="line"
         id="tspan10881"
         x="77.252525"
         y="85.685913"
         style="font-style:normal;font-variant:normal;font-weight:normal;font-stretch:normal;font-family:'Keter YG';-inkscape-font-specification:'Keter YG';fill:#ffff00;fill-opacity:1;stroke-width:0.26458332">WHEN</tspan></text>
    <text
       xml:space="preserve"
       style="font-style:normal;font-variant:normal;font-weight:normal;font-stretch:normal;font-size:7.05555534px;line-height:1.25;font-family:Kayrawan;-inkscape-font-specification:Kayrawan;letter-spacing:0px;word-spacing:0px;fill:#000000;fill-opacity:1;stroke:none;stroke-width:0.26458332"
       x="102.63197"
       y="123.43439"
       id="text10887"><tspan
         sodipodi:role="line"
         id="tspan10885"
         x="102.63197"
         y="123.43439"
         style="font-style:normal;font-variant:normal;font-weight:normal;font-stretch:normal;font-family:'Lobster Two';-inkscape-font-specification:'Lobster Two';stroke-width:0.26458332">I LEARN!!! :D</tspan></text>
  </g>
</svg>
