<?xml version="1.0" encoding="UTF-8" standalone="no"?>
<!-- Created with Inkscape (http://www.inkscape.org/) -->

<svg
   xmlns:dc="http://purl.org/dc/elements/1.1/"
   xmlns:cc="http://creativecommons.org/ns#"
   xmlns:rdf="http://www.w3.org/1999/02/22-rdf-syntax-ns#"
   xmlns:svg="http://www.w3.org/2000/svg"
   xmlns="http://www.w3.org/2000/svg"
   xmlns:sodipodi="http://sodipodi.sourceforge.net/DTD/sodipodi-0.dtd"
   xmlns:inkscape="http://www.inkscape.org/namespaces/inkscape"
   width="199.20772mm"
   height="77.950905mm"
   viewBox="0 0 199.20772 77.950905"
   version="1.1"
   id="svg8"
   sodipodi:docname="drawing.svg"
   inkscape:version="0.92.3 (2405546, 2018-03-11)">
  <defs
     id="defs2" />
  <sodipodi:namedview
     id="base"
     pagecolor="#ffffff"
     bordercolor="#666666"
     borderopacity="1.0"
     inkscape:pageopacity="0.0"
     inkscape:pageshadow="2"
     inkscape:zoom="1.4142136"
     inkscape:cx="342.83306"
     inkscape:cy="147.8925"
     inkscape:document-units="mm"
     inkscape:current-layer="layer1"
     showgrid="false"
     inkscape:window-width="1280"
     inkscape:window-height="745"
     inkscape:window-x="0"
     inkscape:window-y="0"
     inkscape:window-maximized="1" />
  <metadata
     id="metadata5">
    <rdf:RDF>
      <cc:Work
         rdf:about="">
        <dc:format>image/svg+xml</dc:format>
        <dc:type
           rdf:resource="http://purl.org/dc/dcmitype/StillImage" />
        <dc:title></dc:title>
      </cc:Work>
    </rdf:RDF>
  </metadata>
  <g
     inkscape:label="Layer 1"
     inkscape:groupmode="layer"
     id="layer1"
     transform="translate(-6.4982796,-5.3234228)">
    <path
       style="opacity:1;fill:#008080;fill-opacity:1;fill-rule:nonzero;stroke:none;stroke-width:2.3908689;stroke-miterlimit:4;stroke-dasharray:none;stroke-dashoffset:0;stroke-opacity:1"
       id="path40"
       d="m 21.95905,8.7801266 c 0.929325,2.6662854 2.063359,5.2546604 2.913772,7.9506024 0.333846,1.058337 0.620621,2.130948 0.930937,3.196415 2.040917,7.879536 2.718281,16.025358 3.259129,24.121749 0.156483,2.640502 0.19806,5.287328 0.107372,7.930898 -0.01864,0.540991 -0.03517,1.082589 -0.08222,1.62185 -0.03459,0.396371 -0.108359,0.788338 -0.162531,1.182507 0,0 -3.197676,1.874194 -3.197676,1.874194 v 0 c 0.105991,-0.411171 0.237725,-0.81655 0.317977,-1.233513 0.108545,-0.563999 0.181251,-1.134651 0.247567,-1.70516 0.315989,-2.718272 0.408838,-5.458676 0.385073,-8.193508 C 26.63936,44.277642 26.62625,43.028036 26.561154,41.7806 26.20491,34.951887 25.34378,28.102987 23.330923,21.550329 22.96968,20.525346 22.638097,19.489421 22.247201,18.475375 c -0.990793,-2.570252 -2.234389,-5.052272 -3.661038,-7.406761 0,0 3.372907,-2.2884874 3.372907,-2.2884874 z"
       inkscape:connector-curvature="0" />
    <path
       style="opacity:1;fill:#008080;fill-opacity:1;fill-rule:nonzero;stroke:none;stroke-width:2.65513325;stroke-miterlimit:4;stroke-dasharray:none;stroke-dashoffset:0;stroke-opacity:1"
       id="path42"
       d="m 10.637202,8.2154523 c 0.2623,0.037016 0.523619,0.081968 0.78693,0.1109876 0.963455,0.1061545 2.237721,0.1912747 3.168076,0.2423595 2.666726,0.1464307 5.33471,0.1980998 8.004568,0.2457862 3.577712,0.01035 7.1595,0.097306 10.735322,-0.064149 1.464916,-0.066169 2.198666,-0.1370044 3.613643,-0.2517858 0.431077,-0.04875 0.862162,-0.097439 1.293242,-0.1461385 0,0 -3.138347,2.7253577 -3.138347,2.7253577 v 0 c -0.403737,0.02018 -0.807465,0.04017 -1.211194,0.06028 -1.210996,0.03286 -2.202097,0.06519 -3.429806,0.07334 -3.520284,0.02337 -7.039869,-0.105356 -10.560151,-0.09845 -4.225016,-0.02071 -8.451586,-0.04329 -12.6760387,0.01805 0,0 3.4137557,-2.915616 3.4137557,-2.915616 z"
       inkscape:connector-curvature="0" />
    <path
       style="opacity:1;fill:#008080;fill-opacity:1;fill-rule:nonzero;stroke:none;stroke-width:2.3908689;stroke-miterlimit:4;stroke-dasharray:none;stroke-dashoffset:0;stroke-opacity:1"
       id="path46"
       d="m 35.418206,20.858076 c 0.01506,0.161025 0.02032,0.323322 0.04562,0.48308 0.08225,0.520255 0.310612,1.485131 0.430328,1.934108 0.464557,1.742269 1.076924,3.442678 1.647767,5.151712 1.06738,3.305506 1.816365,6.72089 2.255998,10.167157 0.19213,1.506043 0.313591,3.390573 0.426887,4.921339 0.07715,1.972663 -0.06034,3.962248 -0.676599,5.848443 -0.185867,0.568849 -0.350459,0.89439 -0.591391,1.420257 0,0 -3.418667,1.878864 -3.418667,1.878864 v 0 c 0.294392,-0.522818 0.505553,-0.86733 0.744299,-1.436656 0.793151,-1.891388 1.079015,-3.925013 1.124347,-5.965019 -0.01889,-0.777884 -0.01172,-1.556848 -0.057,-2.333642 -0.251174,-4.308813 -1.133112,-8.582962 -2.639742,-12.627274 -0.941679,-2.415364 -1.931121,-4.81368 -2.752475,-7.273977 0,0 3.460596,-2.168392 3.460596,-2.168392 z"
       inkscape:connector-curvature="0" />
    <path
       style="opacity:1;fill:#008080;fill-opacity:1;fill-rule:nonzero;stroke:none;stroke-width:2.3908689;stroke-miterlimit:4;stroke-dasharray:none;stroke-dashoffset:0;stroke-opacity:1"
       id="path50"
       d="m 32.796737,26.844687 c 0.942734,-0.853806 1.968565,-1.604459 3.020325,-2.317421 4.655741,-3.156019 2.897018,-2.123546 6.035686,-3.849729 0.658919,-0.313534 1.304204,-0.657502 1.97676,-0.940609 2.961816,-1.24674 6.42691,-2.107192 9.63222,-2.338827 0.839183,-0.06066 1.682246,-0.03997 2.523368,-0.05991 0.824934,0.04732 1.653265,0.05345 2.47479,0.142018 2.235065,0.240913 4.570389,0.735062 6.413002,2.11144 1.529901,1.142776 1.673783,1.738688 2.643707,3.345818 0.258949,0.744626 0.593177,1.467209 0.776837,2.233881 0.923186,3.853904 0.161288,8.080792 -0.739779,11.862368 -0.249194,1.045802 -0.557314,2.07668 -0.83596,3.115015 -1.246783,4.16246 -2.878093,8.205741 -4.794319,12.103426 -0.364349,0.716427 -0.751583,1.421296 -1.107339,2.142145 -0.0628,0.127123 -0.27584,0.503056 -0.251748,0.694425 0.0088,0.07013 0.081,0.11579 0.121545,0.173698 0.131146,0.05188 0.257612,0.11763 0.393438,0.155573 1.458042,0.407303 3.027149,0.373908 4.502147,0.08227 0.543098,-0.107372 1.07232,-0.275883 1.608479,-0.413824 1.687353,-0.498354 3.287546,-1.220634 4.880416,-1.955697 0,0 -2.589922,2.409482 -2.589922,2.409482 v 0 c -1.610199,0.712878 -3.226395,1.41707 -4.921705,1.909556 -0.56149,0.14185 -1.116163,0.314078 -1.684459,0.425519 -1.32968,0.260727 -2.701997,0.323954 -4.046035,0.147254 -0.292204,-0.0384 -0.587577,-0.07661 -0.86847,-0.16583 -0.205307,-0.06523 -0.38399,-0.195334 -0.57598,-0.293 -0.09065,-0.138574 -0.225892,-0.256664 -0.272048,-0.415702 -0.09569,-0.329538 0.107307,-0.611323 0.254281,-0.872239 0.43065,-0.764693 0.910877,-1.501874 1.345758,-2.264089 2.2123,-3.930028 4.063276,-8.067262 5.421048,-12.371671 0.283798,-1.034188 0.602999,-2.059304 0.851393,-3.10256 0.695936,-2.922949 1.235099,-6.011598 0.982682,-9.029955 -0.187595,-2.243072 -0.477015,-2.62571 -1.226878,-4.651667 -0.929949,-1.504805 -1.113905,-2.12182 -2.549246,-3.203425 -1.781748,-1.342654 -4.05191,-1.836804 -6.221122,-2.069247 -0.811145,-0.08691 -1.629173,-0.08851 -2.44376,-0.132765 -0.832661,0.02651 -1.667602,0.01243 -2.497977,0.07942 -3.270814,0.264026 -6.645176,1.156747 -9.64032,2.4926 -0.690409,0.307926 -1.351668,0.677417 -2.027502,1.016122 -3.158371,1.828862 -1.515962,0.971919 -0.248746,-0.118563 0.325162,-0.279806 -0.704862,0.489246 -1.051823,0.741514 -0.456125,0.331639 -0.887079,0.657154 -1.301636,1.036431 -0.110004,0.100653 -0.209153,0.212549 -0.313735,0.318819 0,0 -3.64738,1.827952 -3.64738,1.827952 z"
       inkscape:connector-curvature="0" />
    <path
       style="opacity:1;fill:#008080;fill-opacity:1;fill-rule:nonzero;stroke:none;stroke-width:2.3908689;stroke-miterlimit:4;stroke-dasharray:none;stroke-dashoffset:0;stroke-opacity:1"
       id="path52"
       d="m 66.864601,5.3234228 c 1.294802,2.3044648 2.652059,4.5757589 3.855437,6.9306482 0.437172,0.855481 0.845232,1.725518 1.267849,2.588273 2.746826,5.745813 4.445819,11.916138 5.682529,18.14518 0.269691,1.358418 0.488535,2.726437 0.732808,4.089649 0.906043,5.546543 1.473189,11.139899 1.907402,16.740667 0.08166,0.998135 0.132232,1.998257 0.178716,2.998486 0,0 -3.301224,2.022327 -3.301224,2.022327 v 0 c 0.04943,-1.052936 0.09207,-2.106196 0.10906,-3.160263 C 77.344967,49.933604 77.0363,44.183636 76.171666,38.498825 75.935,37.135271 75.732378,35.765365 75.461668,34.408162 74.230943,28.237995 72.357365,22.173304 69.414461,16.594456 68.95506,15.762412 68.514687,14.919572 68.036236,14.098337 67.351218,12.922529 66.395565,11.448929 65.606912,10.311081 65.143796,9.6429023 64.525254,8.8005422 63.987966,8.156253 63.849202,7.9898491 63.695926,7.8361279 63.549906,7.6760659 c 0,0 3.314651,-2.3526431 3.314651,-2.3526431 z"
       inkscape:connector-curvature="0" />
    <path
       style="opacity:1;fill:#008080;fill-opacity:1;fill-rule:nonzero;stroke:none;stroke-width:2.3908689;stroke-miterlimit:4;stroke-dasharray:none;stroke-dashoffset:0;stroke-opacity:1"
       id="path54"
       d="m 75.290109,34.801137 c 1.698621,-1.68697 3.199749,-3.571494 4.609256,-5.503387 0.545071,-0.747075 1.083894,-1.499642 1.5875,-2.275278 0.523993,-0.807049 0.995758,-1.64683 1.493631,-2.470248 1.679483,-3.040913 2.85227,-6.321399 3.565644,-9.716741 0.315507,-1.501655 0.36208,-2.087688 0.547613,-3.555459 0.139554,-1.254161 0.175659,-2.514712 0.148596,-3.7750269 0,0 3.353102,-2.042761 3.353102,-2.042761 v 0 c -0.09437,1.3433004 -0.234967,2.6832194 -0.454359,4.0125184 -0.266731,1.5328035 -0.347874,2.1300375 -0.724061,3.6970745 -0.825448,3.438628 -2.020222,6.780713 -3.700209,9.899275 -0.480402,0.821482 -0.937041,1.657334 -1.441206,2.464448 -0.911085,1.458516 -1.899313,2.812322 -2.908969,4.200561 -0.818083,1.124842 -1.188219,1.639847 -2.008615,2.654974 -0.153945,0.190504 -0.317129,0.373344 -0.4757,0.56002 0,0 -3.592212,1.85003 -3.592212,1.85003 z"
       inkscape:connector-curvature="0" />
    <path
       style="opacity:1;fill:#008080;fill-opacity:1;fill-rule:nonzero;stroke:none;stroke-width:2.3908689;stroke-miterlimit:4;stroke-dasharray:none;stroke-dashoffset:0;stroke-opacity:1"
       id="path56"
       d="m 78.90649,32.29544 c 1.236403,0.09021 2.434991,0.54778 3.553718,1.056062 0.604829,0.274798 1.205669,0.561297 1.785145,0.88618 0.714756,0.400729 1.395741,0.85896 2.093605,1.288441 2.121687,1.573146 2.782898,1.96478 4.744875,3.848931 2.582973,2.480514 4.845933,5.300573 6.901657,8.225978 0.673181,0.957985 1.294748,1.95123 1.942127,2.926839 2.536923,4.098771 4.750443,8.39677 6.680793,12.812338 0.14561,0.367039 0.2912,0.734083 0.43679,1.101119 0,0 -3.10671,2.049104 -3.10671,2.049104 v 0 c -0.11366,-0.382623 -0.22734,-0.765247 -0.341,-1.147868 -1.56841,-4.577359 -3.50817,-9.032439 -6.035175,-13.169354 -0.633064,-0.978861 -1.234726,-1.978749 -1.899193,-2.936583 -2.03081,-2.927459 -4.322159,-5.702219 -6.976914,-8.088591 -2.066335,-1.857438 -2.68082,-2.150938 -4.928973,-3.638561 -0.734912,-0.386971 -1.452495,-0.808796 -2.204737,-1.160912 -0.616776,-0.288712 -1.254619,-0.53232 -1.896803,-0.758993 -1.236238,-0.43637 -2.546769,-0.760708 -3.865389,-0.63266 0,0 3.116184,-2.66147 3.116184,-2.66147 z"
       inkscape:connector-curvature="0" />
    <path
       style="opacity:1;fill:#008080;fill-opacity:1;fill-rule:nonzero;stroke:none;stroke-width:2.3908689;stroke-miterlimit:4;stroke-dasharray:none;stroke-dashoffset:0;stroke-opacity:1"
       id="path112"
       d="m 99.240483,9.3948929 c -0.173368,-0.00384 -0.347919,-0.032017 -0.520102,-0.011476 -0.270404,0.032247 -0.54301,0.07689 -0.799318,0.1688668 -0.351218,0.1260462 -1.266085,0.7531283 -1.010939,0.4808443 0.398141,-0.4248739 1.158625,-1.4580806 1.459609,-0.9596273 0.3128,0.5180458 -0.87292,0.8456045 -1.236216,1.3295953 -0.421214,0.561173 -0.737412,1.193983 -1.106123,1.790971 -0.307352,0.757413 -0.665157,1.496259 -0.922046,2.272237 -0.935046,2.824443 -1.33653,5.838977 -0.881195,8.800812 0.458546,2.982823 1.019608,3.664331 2.295777,6.406507 0.715829,1.033694 1.365214,2.116722 2.147499,3.101086 2.637211,3.318466 5.988891,6.138785 9.187781,8.889854 5.59415,4.811029 1.31516,1.000862 6.74401,5.913973 2.59301,2.509396 3.36189,3.182047 5.765,5.775486 0.78529,0.847484 1.56646,1.700247 2.30299,2.590405 1.05358,1.273334 2.51062,3.100402 3.07817,4.733853 0.22545,0.648983 0.19916,1.359571 0.29864,2.039351 -0.23144,0.599349 -0.31908,1.276478 -0.69426,1.798051 -0.4496,0.625081 -1.06934,1.127271 -1.71339,1.549254 -1.57418,1.031421 -3.18679,2.030013 -4.9087,2.789582 -1.04218,0.459731 -2.19502,0.619281 -3.31305,0.837219 -3.38078,0.659002 -5.39301,0.704383 -8.89903,0.977948 -1.85978,-0.02417 -3.72257,0.03643 -5.5793,-0.07244 C 94.068476,70.194503 87.289075,68.829774 80.58058,67.384742 74.5201,66.079299 71.638598,65.338613 65.613357,63.876362 58.858136,62.260939 52.194551,60.28846 45.423226,58.737926 41.978773,57.949195 38.643533,57.266074 35.13939,56.833451 c -1.417628,-0.175012 -2.846225,-0.245406 -4.269335,-0.368114 -4.462551,-0.199351 -8.494453,0.454264 -12.662973,2.017362 -1.676303,0.628574 -2.572238,1.103005 -4.149852,1.866135 -1.204838,0.645413 -1.825403,0.951255 -2.959045,1.653276 -0.371591,0.230121 -1.4513892,0.974396 -1.094408,0.722203 3.165854,-2.236565 1.941722,-1.372935 1.152757,-0.674398 -0.177427,0.157081 -0.344687,0.325295 -0.517035,0.487939 -0.482062,0.516289 -0.260954,0.265456 -0.6676359,0.748674 0,0 -3.1262569,1.627431 -3.1262569,1.627431 v 0 c 0.4436371,-0.530157 0.2027456,-0.254223 0.7270873,-0.823915 2.5328985,-2.40811 5.5666995,-4.244962 8.6837595,-5.79347 0.615307,-0.281204 1.222764,-0.580263 1.84593,-0.843616 1.542139,-0.651724 3.10609,-1.232576 4.730667,-1.650201 3.21572,-0.82665 6.502723,-1.108605 9.814901,-0.824486 1.378096,0.166859 2.763526,0.281501 4.134305,0.500552 3.422872,0.546968 6.572345,1.328273 9.930788,2.213227 6.628356,1.74659 13.169381,3.814938 19.835052,5.423739 2.489839,0.605129 4.972432,1.240913 7.469516,1.815389 4.428238,1.018752 10.422329,2.283882 14.923336,3.022993 4.446916,0.730229 8.8977,1.299458 13.406862,1.437103 1.91335,0.05839 3.828,-0.06116 5.74201,-0.09181 3.60038,-0.393745 5.75644,-0.509236 9.21875,-1.314997 1.16462,-0.271029 2.26069,-0.822239 3.44101,-1.013609 0.15876,-0.02575 0.1004,0.488014 0.24433,0.416091 1.72358,-0.861689 1.74542,-1.513825 2.49432,-3.068066 -0.0356,-0.680262 0.0643,-1.381507 -0.10709,-2.040792 -0.46067,-1.772045 -1.72934,-3.439099 -2.80097,-4.842266 -2.33995,-3.063832 -5.02112,-5.856374 -7.79113,-8.528915 -4.61609,-4.214705 -1.92492,-1.835164 -6.7353,-5.912808 -2.18977,-1.856216 -4.54815,-3.803795 -6.595773,-5.824282 -0.971413,-0.958537 -1.930716,-1.934714 -2.801772,-2.985285 -0.811748,-0.979033 -1.490957,-2.060796 -2.236425,-3.091185 -0.525396,-1.066808 -1.152267,-2.089373 -1.576188,-3.200413 -1.486956,-3.897116 -1.396354,-8.042997 -0.26044,-12.004344 0.220433,-0.768729 0.534066,-1.507619 0.801094,-2.261425 0.331389,-0.599297 0.612479,-1.229301 0.994146,-1.797907 1.287634,-1.918328 2.848729,-2.6948322 4.944888,-4.0418 0.346121,-0.2224225 0.74174,-0.361716 1.13208,-0.4917508 0.55803,-0.1859142 0.96734,-0.1940427 1.52306,-0.2392802 0,0 -2.73796,2.3384346 -2.73796,2.3384346 z"
       inkscape:connector-curvature="0" />
    <path
       style="opacity:1;fill:#008080;fill-opacity:1;fill-rule:nonzero;stroke:none;stroke-width:2.3908689;stroke-miterlimit:4;stroke-dasharray:none;stroke-dashoffset:0;stroke-opacity:1"
       id="path114"
       d="m 101.39466,7.0464927 c 1.86474,0.1264539 3.6574,0.8341383 5.30133,1.6901249 0.64948,0.3381809 1.26951,0.73013 1.90426,1.0951945 3.8309,2.5038119 7.17277,5.6990249 9.94595,9.3355659 0.57891,0.759116 1.1048,1.557228 1.65719,2.335843 1.37601,2.222817 2.68088,4.557756 3.3708,7.101617 0.36589,1.349193 0.59367,2.788145 0.2233,4.174282 -0.15876,0.59371 -0.53408,1.106989 -0.80112,1.66049 -2.70848,2.459833 -0.87655,1.000702 -5.92454,3.776974 0,0 2.19558,-2.018416 2.19558,-2.018416 v 0 c -0.72998,1.491796 -0.71745,1.138852 1.02322,-0.274948 0.29962,-0.52891 0.70684,-1.009966 0.89885,-1.586716 0.44791,-1.345412 0.29882,-2.802574 -0.0192,-4.146121 -0.18984,-0.799048 -0.47562,-1.574007 -0.77527,-2.338658 -0.85518,-2.182231 -1.26809,-2.716942 -2.44901,-4.765761 -0.54529,-0.775478 -1.06112,-1.572546 -1.6359,-2.326435 -2.76316,-3.624256 -6.14288,-6.772152 -10.05793,-9.115561 -0.65562,-0.336306 -1.29578,-0.70464 -1.96688,-1.008927 -1.76138,-0.7986506 -3.69883,-1.3946322 -5.650873,-1.2301858 0,0 2.761283,-2.3583625 2.761283,-2.3583625 z"
       inkscape:connector-curvature="0" />
    <path
       style="opacity:1;fill:#008080;fill-opacity:1;fill-rule:nonzero;stroke:none;stroke-width:2.3908689;stroke-miterlimit:4;stroke-dasharray:none;stroke-dashoffset:0;stroke-opacity:1"
       id="path120"
       d="m 133.30055,46.170216 c 0.15373,-0.302925 0.32506,-0.597445 0.46083,-0.908772 0.32185,-0.737958 0.6038,-1.492701 0.91107,-2.236854 0.76009,-1.840839 2.11294,-5.033391 2.81821,-6.809703 1.37865,-3.472318 1.71306,-4.497217 2.9791,-8.024588 1.51631,-4.36172 2.88812,-8.77778 3.96723,-13.269355 0.43428,-1.807617 0.49143,-2.198597 0.82151,-3.915062 0.0722,-0.452742 0.14441,-0.905483 0.21662,-1.3582216 0,0 2.77555,-1.6288101 2.77555,-1.6288101 v 0 c -0.10764,0.4769493 -0.21493,0.9538985 -0.32246,1.4308489 -1.51451,5.9603258 -3.41607,11.8127728 -5.46328,17.6099438 -1.43767,4.068958 -1.38179,3.957153 -2.86294,7.967669 -0.60551,1.639612 -1.81782,4.770923 -2.36758,6.53914 -1.57465,5.064745 0.10785,0.272246 -0.81815,2.866934 0,0 -3.11574,1.73683 -3.11574,1.73683 z"
       inkscape:connector-curvature="0" />
    <path
       style="opacity:1;fill:#008080;fill-opacity:1;fill-rule:nonzero;stroke:none;stroke-width:2.3908689;stroke-miterlimit:4;stroke-dasharray:none;stroke-dashoffset:0;stroke-opacity:1"
       id="path122"
       d="m 148.23581,8.9934966 c -0.51706,5.2366084 -0.34463,10.5113404 0.0452,15.7504844 0.1444,1.939671 0.35291,3.874033 0.52938,5.81105 0.96334,8.361672 2.44713,16.672638 4.64133,24.802751 1.21769,4.511926 1.73117,5.800817 3.19735,10.095561 1.5182,4.133559 3.27647,8.188998 5.54373,11.970927 0.77768,1.297245 1.04298,1.639271 1.8556,2.801725 0.21327,0.293747 0.42656,0.587501 0.63985,0.881248 0,0 -2.72977,1.896258 -2.72977,1.896258 v 0 c -0.18171,-0.31752 -0.3632,-0.635044 -0.54481,-0.952563 -0.95226,-1.700804 -1.87707,-3.417757 -2.67773,-5.196886 -1.49967,-3.332428 -2.69594,-6.791239 -3.81614,-10.266049 -1.31758,-4.425539 -1.7472,-5.696362 -2.89565,-10.308444 -2.03181,-8.159664 -3.58054,-16.434912 -4.75008,-24.760485 -0.23288,-1.903886 -0.48332,-3.805682 -0.69821,-5.711663 -0.56035,-4.969959 -0.97022,-9.957143 -1.39966,-14.938985 0,0 3.05959,-1.8749294 3.05959,-1.8749294 z"
       inkscape:connector-curvature="0" />
    <path
       style="opacity:1;fill:#008080;fill-opacity:1;fill-rule:nonzero;stroke:none;stroke-width:2.3908689;stroke-miterlimit:4;stroke-dasharray:none;stroke-dashoffset:0;stroke-opacity:1"
       id="path198"
       d="m 155.42096,10.128455 c -0.6127,6.583307 0.14942,13.179527 0.75839,19.731391 0.70023,5.251725 1.68955,10.463323 2.97323,15.603727 0.77598,3.107286 1.66084,6.221717 2.71012,9.24953 0.46462,1.340711 1.00434,2.654209 1.50649,3.981313 1.31285,2.997258 1.49905,3.584543 2.97187,6.365256 0.42972,0.811315 0.90222,1.599238 1.35335,2.398862 0,0 -2.10143,1.433048 -2.10143,1.433048 v 0 c -0.41256,-0.830318 -0.84431,-1.651386 -1.23773,-2.490939 -1.32518,-2.827784 -1.54629,-3.532507 -2.7384,-6.546562 -0.47062,-1.351876 -0.97287,-2.693156 -1.41184,-4.05564 -2.62205,-8.138391 -4.35126,-16.547626 -5.4961,-25.013099 -0.26715,-1.79666 -0.55738,-3.590044 -0.80141,-5.389985 -0.31613,-2.331604 -0.66008,-5.534111 -0.86347,-7.927846 -0.22953,-2.701919 -0.14417,-2.284794 -0.29391,-4.606098 -0.0215,-0.348578 -0.0565,-0.696331 -0.0844,-1.044491 0,0 2.75531,-1.688467 2.75531,-1.688467 z"
       inkscape:connector-curvature="0" />
    <path
       style="opacity:1;fill:#008080;fill-opacity:1;fill-rule:nonzero;stroke:none;stroke-width:2.3908689;stroke-miterlimit:4;stroke-dasharray:none;stroke-dashoffset:0;stroke-opacity:1"
       id="path210"
       d="m 139.05429,36.401549 c 0.32846,-0.09055 0.65816,-0.176637 0.98535,-0.271601 2.43309,-0.70624 4.84448,-1.487914 7.26936,-2.221458 1.80243,-0.545235 5.76129,-1.724347 7.50956,-2.245925 3.80971,-1.135799 7.62307,-2.260963 11.41986,-3.439633 1.04135,-0.323281 4.8041,-1.503524 5.9466,-1.939405 0.75095,-0.286499 1.47322,-0.643118 2.20985,-0.964673 0.55387,-0.359591 1.31737,-0.515221 1.66156,-1.078777 0.22856,-0.374231 -0.95943,0.734152 -1.25107,0.406682 -0.32042,-0.359756 0.35538,-0.915882 0.3687,-1.397456 0.0144,-0.554446 -0.0901,-1.12004 -0.28473,-1.639428 -0.60021,-1.601722 -1.462,-2.261058 -2.61468,-3.507306 -0.73442,-0.551481 -1.42793,-1.162177 -2.20328,-1.654441 -3.46145,-2.197584 -7.72803,-3.457925 -11.74261,-4.139251 -0.97218,-0.164994 -1.95626,-0.250047 -2.93436,-0.375065 -0.90956,-0.03897 -1.81912,-0.07792 -2.72868,-0.11689 0,0 1.95508,-1.651603 1.95508,-1.651603 v 0 c 0.89651,0.05889 1.793,0.117798 2.68949,0.17671 0.96812,0.141276 1.94201,0.247378 2.90432,0.423838 4.05776,0.74407 8.33088,2.020189 11.88502,4.159563 0.80793,0.48633 1.54161,1.086532 2.31241,1.629795 0.58762,0.582597 1.23854,1.10763 1.76286,1.747792 0.79929,0.975907 1.48855,2.174306 1.51822,3.482443 0.0119,0.521707 0.004,1.129903 -0.32829,1.530709 -1.6299,1.954862 -2.99886,2.655569 -4.92772,3.814033 -0.70521,0.283151 -1.39909,0.596266 -2.11561,0.849447 -1.04421,0.368979 -4.84464,1.494069 -5.76527,1.76685 -3.77738,1.119263 -7.56251,2.212526 -11.33137,3.360445 -5.55572,1.70961 -11.10019,3.457618 -16.55751,5.463912 0,0 2.38694,-2.169299 2.38694,-2.169299 z"
       inkscape:connector-curvature="0" />
    <path
       style="opacity:1;fill:#008080;fill-opacity:1;fill-rule:nonzero;stroke:none;stroke-width:2.3908689;stroke-miterlimit:4;stroke-dasharray:none;stroke-dashoffset:0;stroke-opacity:1"
       id="path248"
       d="m 165.57163,34.843097 c -0.0289,0.256235 -0.0806,0.510757 -0.0901,0.768504 -0.0459,1.242176 0.055,2.371504 0.23072,3.6182 0.33099,2.34834 0.74287,4.267287 1.38735,6.580432 0.38086,1.366973 0.83893,2.711239 1.2584,4.066855 1.43367,3.92207 1.59799,4.598442 3.31822,8.400992 0.58414,1.29122 1.23037,2.553443 1.84556,3.830169 0,0 -1.80312,1.088183 -1.80312,1.088183 v 0 c -0.59547,-1.291694 -1.21138,-2.574163 -1.78639,-3.875078 -1.67225,-3.783107 -1.90318,-4.517288 -3.39403,-8.376 -0.46786,-1.331768 -0.96249,-2.654437 -1.40367,-3.995301 -0.75554,-2.296514 -1.25112,-4.068929 -1.78804,-6.384404 -0.28571,-1.232216 -0.48444,-2.236706 -0.62561,-3.460644 -0.027,-0.23397 -0.0299,-0.470105 -0.0449,-0.705158 0,0 2.8956,-1.556752 2.8956,-1.556752 z"
       inkscape:connector-curvature="0" />
    <path
       style="opacity:1;fill:#008080;fill-opacity:1;fill-rule:nonzero;stroke:none;stroke-width:2.3908689;stroke-miterlimit:4;stroke-dasharray:none;stroke-dashoffset:0;stroke-opacity:1"
       id="path250"
       d="m 162.676,36.399847 c 1.10662,-0.796561 1.09055,-0.813919 2.47989,-1.63972 1.47798,-0.878484 2.94518,-1.777379 4.45686,-2.596541 0.8533,-0.462406 1.745,-0.85118 2.63208,-1.244918 2.80059,-1.243032 3.19641,-1.323148 6.10325,-2.363333 4.56906,-1.546775 9.2627,-2.699853 13.99112,-3.638597 0,0 -2.28261,1.823865 -2.28261,1.823865 v 0 c -4.5891,0.766498 -9.13489,1.829043 -13.54245,3.330418 -2.8864,1.051244 -3.3794,1.162728 -6.164,2.447119 -0.92589,0.427073 -1.80931,0.943839 -2.74166,1.356603 -0.083,0.03672 0.24504,-0.259675 0.16545,-0.216135 -0.98975,0.541724 -1.32963,0.83998 -2.12798,1.457096 0,0 -2.96995,1.284126 -2.96995,1.284126 z"
       inkscape:connector-curvature="0" />
    <path
       style="opacity:1;fill:#008080;fill-opacity:1;fill-rule:nonzero;stroke:none;stroke-width:2.3908689;stroke-miterlimit:4;stroke-dasharray:none;stroke-dashoffset:0;stroke-opacity:1"
       id="path327"
       d="m 52.98239,32.174995 c -0.346247,6.370059 -1.080261,12.709931 -1.891411,19.03524 -0.719766,5.253939 -1.730562,10.463457 -3.016263,15.607851 -0.401551,1.606708 -0.859964,3.198662 -1.289953,4.797991 0,0 -2.841762,1.637693 -2.841762,1.637693 v 0 c 0.457382,-1.610257 0.951862,-3.210435 1.372138,-4.830767 1.322112,-5.097311 2.305857,-10.279287 2.923012,-15.509404 0.455676,-4.435231 0.53423,-4.720293 0.794457,-9.005556 0.120548,-1.984859 0.232967,-4.359419 0.19727,-6.380038 -0.0165,-0.930273 -0.116697,-1.983486 -0.198155,-2.932035 0,0 3.950678,-2.420975 3.950667,-2.420975 z"
       inkscape:connector-curvature="0" />
    <path
       style="opacity:1;fill:#008080;fill-opacity:1;fill-rule:nonzero;stroke:none;stroke-width:2.3908689;stroke-miterlimit:4;stroke-dasharray:none;stroke-dashoffset:0;stroke-opacity:1"
       id="path361"
       d="m 135.48544,10.860883 c -2.58446,4.679927 -4.50576,9.699879 -5.75453,14.897278 -0.34481,1.4352 -0.60028,2.890417 -0.90043,4.335624 -0.17669,1.439546 -0.43808,2.871204 -0.5301,4.318633 -0.2367,3.722067 0.0545,7.610219 1.99852,10.899832 1.41043,2.386774 2.2628,2.68491 4.42319,4.28274 0.96966,0.398782 1.93927,0.797563 2.90895,1.196343 0,0 -2.99175,2.357274 -2.99175,2.357274 v 0 c -0.99364,-0.420238 -1.98726,-0.840469 -2.98092,-1.260702 -2.24026,-1.704872 -3.05141,-1.959588 -4.46418,-4.500524 -1.89891,-3.415297 -2.12705,-7.395433 -1.86934,-11.200983 0.0987,-1.457164 0.35313,-2.899574 0.52967,-4.349364 0.71496,-3.660996 0.86757,-4.854733 1.87353,-8.411641 1.00299,-3.546486 2.38258,-6.962369 3.77231,-10.369745 0,0 3.98508,-2.194765 3.98508,-2.194765 z"
       inkscape:connector-curvature="0" />
    <path
       style="opacity:1;fill:#008080;fill-opacity:1;fill-rule:nonzero;stroke:none;stroke-width:2.3908689;stroke-miterlimit:4;stroke-dasharray:none;stroke-dashoffset:0;stroke-opacity:1"
       id="path513"
       d="m 173.29646,61.627838 c 2.96365,-1.233492 5.9491,-2.41363 8.94517,-3.566029 1.25594,-0.48308 2.5101,-0.971134 3.77327,-1.43504 1.39493,-0.5123 2.80037,-0.9956 4.20056,-1.493404 2.45461,-0.848492 4.6759,-1.722011 7.20902,-2.250923 0.61168,-0.127697 1.24474,-0.282365 1.86397,-0.198849 1.34894,0.181897 -0.13604,1.588199 -0.26156,1.716544 -0.55064,0.562733 -1.2137,1.003193 -1.82055,1.50479 -6.79363,4.973761 -0.73362,0.567999 -6.11817,4.414807 -1.48838,1.063327 -2.51494,1.756179 -3.82388,2.858284 -1.9519,1.643509 -1.78806,1.535226 -3.49482,3.173641 -0.2976,0.391041 -0.65694,0.742027 -0.8928,1.173133 -0.12098,0.221275 -0.23311,0.501133 -0.15445,0.740751 0.0573,0.1747 0.30371,0.229881 0.48439,0.264033 0.34638,0.06539 0.70514,0.04562 1.05719,0.02708 0.99508,-0.05238 2.22305,-0.274134 3.19518,-0.427246 1.18138,-0.103525 2.93917,-0.404076 3.53091,1.040575 0.49481,1.207992 -0.36324,2.908944 -0.80333,3.994779 -0.18601,0.397625 -0.79588,1.49521 -0.77655,2.071309 0.008,0.182783 0.10906,0.376967 0.2567,0.48486 0.19964,0.145891 0.46423,0.181298 0.70846,0.220318 0.7588,0.121217 1.73265,0.059 2.48125,0.04165 1.30149,-0.0657 2.61167,-0.04086 3.81997,0.514068 0.53382,0.245181 1.79806,1.120048 2.25102,1.422603 0,0 -1.5254,1.227266 -1.5254,1.227266 v 0 c -0.35607,-0.219362 -1.82576,-1.145831 -2.26893,-1.343867 -1.18587,-0.529921 -2.4572,-0.570444 -3.73249,-0.496726 -0.46879,0.01888 -0.93724,0.0554 -1.40643,0.05688 -0.51161,0.0016 -1.62517,0.05095 -2.10812,-0.370881 -0.51198,-0.447176 -0.15278,-1.169673 0.0318,-1.615783 0.1731,-0.418667 0.40322,-0.811454 0.60484,-1.217182 0.41539,-1.009322 1.22065,-2.605062 0.81309,-3.742735 -0.49632,-1.385439 -2.14679,-1.097477 -3.24245,-1.013143 -0.59641,0.09982 -2.70747,0.469725 -3.34234,0.512816 -0.41561,0.02821 -0.84966,0.08722 -1.24925,-0.03034 -0.84377,-0.248266 -0.64494,-0.846265 -0.29471,-1.425252 0.28497,-0.471195 0.69278,-0.856171 1.03918,-1.284258 1.35034,-1.262043 2.22718,-2.125373 3.70505,-3.304355 3.15124,-2.51396 6.47196,-4.799033 9.73767,-7.158154 0.53444,-0.447187 1.09,-0.870271 1.60332,-1.341554 0.28977,-0.26603 0.64655,-0.504649 0.80135,-0.866248 0.0777,-0.181586 -0.004,-0.494572 -0.19008,-0.561273 -0.48297,-0.173267 -1.02924,-0.12368 -1.53823,-0.05879 -2.4897,0.317536 -4.50913,1.168216 -6.90342,1.977041 -1.42897,0.526912 -2.86373,1.038473 -4.28697,1.580725 -2.34609,0.893845 -5.01124,1.980803 -7.33423,2.963714 -1.82526,0.772289 -3.13352,1.345677 -4.8751,2.17203 -0.41898,0.1988 -0.83128,0.411301 -1.24692,0.616956 0,0 1.57772,-1.56857 1.57772,-1.56857 z"
       inkscape:connector-curvature="0" />
    <path
       style="opacity:1;fill:#008080;fill-opacity:1;fill-rule:nonzero;stroke:none;stroke-width:2.3908689;stroke-miterlimit:4;stroke-dasharray:none;stroke-dashoffset:0;stroke-opacity:1"
       id="path973"
       d="m 169.55181,48.18586 c 1.51176,-0.533006 2.98376,-1.172238 4.4636,-1.786343 0.92235,-0.382754 2.33689,-0.963183 3.26201,-1.343389 2.15411,-0.887419 4.32326,-1.742501 6.42174,-2.75697 0.27848,-0.148018 0.56802,-0.273819 0.84894,-0.416929 0.082,-0.04179 0.31586,-0.188234 0.24308,-0.131857 -0.38969,0.301438 -0.80648,0.566818 -1.19575,0.868828 -0.0119,0.0095 0.0144,0.02843 0.0215,0.0426 -0.027,0.0011 -0.054,0.0026 -0.081,0.0038 -0.64239,-0.09303 -1.31011,0.05461 -1.91045,0.282815 -0.18793,0.07139 -0.36954,0.158061 -0.55426,0.237078 -0.56706,0.265669 -1.12109,0.560913 -1.65159,0.894078 -0.1554,0.09769 -0.6046,0.416676 -0.4588,0.304974 1.11978,-0.858169 1.0029,-0.774916 0.54961,-0.280852 -0.24394,0.307946 -0.36831,0.666275 -0.4867,1.033591 0,0 -1.34157,0.817376 -1.34157,0.817376 v 0 c 0.11692,-0.385654 0.2399,-0.765628 0.47315,-1.100924 0.0961,-0.114641 0.17334,-0.248461 0.28842,-0.34389 0.5109,-0.423153 1.04837,-0.813496 1.58311,-1.206109 0.14393,-0.105696 0.29907,-0.195454 0.45187,-0.287957 0.53644,-0.324718 1.09318,-0.61595 1.6629,-0.87757 0.19198,-0.0799 0.38087,-0.168198 0.57622,-0.239697 0.56479,-0.206739 1.22245,-0.353504 1.82834,-0.325436 0.0801,0.0038 0.15852,0.02152 0.2379,0.0319 0.0589,0.02797 0.12862,0.03971 0.17596,0.08397 0.54558,0.507948 -1.80723,1.400261 -2.31421,1.649248 -2.03705,0.91506 -4.13298,1.688933 -6.20048,2.531083 -2.69518,1.10228 -5.37061,2.250012 -8.0326,3.43019 0,0 1.13975,-1.113574 1.13975,-1.113574 z"
       inkscape:connector-curvature="0" />
    <path
       style="opacity:1;fill:#008080;fill-opacity:1;fill-rule:nonzero;stroke:none;stroke-width:2.3908689;stroke-miterlimit:4;stroke-dasharray:none;stroke-dashoffset:0;stroke-opacity:1"
       id="path1015"
       d="m 145.43626,26.355317 c -0.27196,1.16689 -0.42524,2.355465 -0.57335,3.542983 -0.11716,1.0041 -0.22259,2.009466 -0.34073,3.013435 0,0 -1.21255,0.856791 -1.21255,0.856791 v 0 c 0.14872,-1.011299 0.27938,-2.025023 0.38451,-3.041888 0.12694,-1.138835 0.26332,-2.276994 0.39137,-3.415373 0,0 1.35075,-0.955948 1.35075,-0.955948 z"
       inkscape:connector-curvature="0" />
    <path
       style="opacity:1;fill:#008080;fill-opacity:1;fill-rule:nonzero;stroke:none;stroke-width:2.3908689;stroke-miterlimit:4;stroke-dasharray:none;stroke-dashoffset:0;stroke-opacity:1"
       id="path1047"
       d="m 163.45332,17.388839 c -0.0571,1.011573 -0.0688,2.024801 -0.083,3.037652 -0.0191,1.310416 0.0144,2.620509 0.0411,3.93049 0.0119,0.459877 0.004,0.24147 0.0168,0.655225 0,0 -1.84821,1.342798 -1.84821,1.342798 v 0 c 0.0119,-0.430316 0.004,-0.203368 0.0168,-0.680812 0.0267,-1.329863 0.0595,-2.659846 0.0411,-3.990126 -0.0144,-0.972699 -0.0241,-1.945892 -0.083,-2.917185 0,0 1.89671,-1.378042 1.89671,-1.378042 z"
       inkscape:connector-curvature="0" />
    <path
       style="opacity:1;fill:#008080;fill-opacity:1;fill-rule:nonzero;stroke:none;stroke-width:2.3908689;stroke-miterlimit:4;stroke-dasharray:none;stroke-dashoffset:0;stroke-opacity:1"
       id="path1727"
       d="m 192.00546,79.322051 c 1.18286,0.01386 2.36366,0.02775 3.54207,0.147684 0.41621,0.04222 0.83057,0.101113 1.24591,0.151676 2.30439,0.324032 4.51943,1.049053 6.73311,1.737975 0.5413,0.165496 1.08132,0.334997 1.61439,0.525389 0.0978,0.03473 0.1896,0.09138 0.29203,0.107088 0.053,0.0083 0.19724,-0.07426 0.15683,-0.03825 -0.41833,0.376622 -0.86993,0.714516 -1.30488,1.071765 -0.0404,-0.07768 -0.0678,-0.163823 -0.1217,-0.233062 -0.1994,-0.257494 -0.68804,-0.694904 -0.89653,-0.883525 -0.22952,-0.207503 -0.46244,-0.410879 -0.69454,-0.615284 -1.17098,-1.031154 -0.4646,-0.382786 -1.64624,-1.501873 -1.10895,-1.098269 -1.97995,-2.392679 -2.65284,-3.79646 -0.30282,-0.631775 -0.41677,-0.967255 -0.65811,-1.601992 -0.17596,-0.484156 -0.31131,-0.980926 -0.44228,-1.478559 0,0 1.31892,-1.084142 1.31892,-1.084142 v 0 c 0.0899,0.518914 0.19199,1.035419 0.33437,1.543093 0.21134,0.68272 0.2804,0.964947 0.57638,1.645133 0.61692,1.417341 1.4821,2.700142 2.59716,3.774625 1.00204,0.905283 0.66767,0.632882 1.6934,1.446987 0.24444,0.194019 0.49134,0.384963 0.73773,0.576539 0.1994,0.154905 0.80799,0.611039 1.02704,0.821345 0.0918,0.08822 0.16546,0.193564 0.24832,0.290364 -0.4431,0.444163 -0.85297,0.924164 -1.32923,1.332497 -0.0464,0.03938 -0.12026,-0.01937 -0.17669,-0.04112 -0.0911,-0.03555 -0.17405,-0.08851 -0.26306,-0.13011 -0.49192,-0.231102 -0.99831,-0.429422 -1.50632,-0.621765 -0.46658,-0.17102 -1.30035,-0.479675 -1.75095,-0.631423 -1.585,-0.533777 -3.20704,-0.969658 -4.87008,-1.17543 -0.42209,-0.03991 -0.84322,-0.0915 -1.26628,-0.119401 -1.25289,-0.08258 -2.51129,-0.03866 -3.75754,0.108523 0,0 1.21978,-1.328315 1.21978,-1.328315 z"
       inkscape:connector-curvature="0" />
    <path
       style="opacity:1;fill:#008080;fill-opacity:1;fill-rule:nonzero;stroke:none;stroke-width:2.3908689;stroke-miterlimit:4;stroke-dasharray:none;stroke-dashoffset:0;stroke-opacity:1"
       id="path1922"
       d="m 6.8456062,64.913955 c 0.9860345,-1.363149 1.9932673,-2.710963 3.0009538,-4.05816 1.254623,-1.650796 2.443098,-3.351563 3.458636,-5.160479 0.261737,-0.496952 0.504927,-1.010099 0.640129,-1.55753 6.34e-4,-0.0093 0.005,-0.01913 0.0026,-0.02803 -0.0031,-0.01052 -0.02809,-0.02127 -0.01889,-0.02732 1.535882,-1.025173 1.596249,-1.566322 1.510231,-0.925091 0,0 -1.484902,1.055372 -1.484902,1.055372 v 0 c 0.05042,-0.666447 -0.01267,0.0019 1.530194,-1.105473 0.0087,-0.0062 -0.01338,-0.02403 -0.02366,-0.02152 -0.01196,0.0031 -0.01243,0.02127 -0.01864,0.03202 -0.213408,0.588291 -0.471919,1.159718 -0.786616,1.701286 -0.342089,0.570279 -0.477247,0.805784 -0.85406,1.386445 -0.864349,1.331957 -1.806084,2.611137 -2.749805,3.887287 -0.924279,1.256899 -1.8605051,2.512194 -2.6774174,3.842504 0,0 -1.5285317,0.978702 -1.5285317,0.978702 z"
       inkscape:connector-curvature="0" />
    <path
       style="opacity:1;fill:#008080;fill-opacity:1;fill-rule:nonzero;stroke:none;stroke-width:2.3908689;stroke-miterlimit:4;stroke-dasharray:none;stroke-dashoffset:0;stroke-opacity:1"
       id="path1958"
       d="m 7.7467864,63.776428 c 2.1304365,-0.779969 4.3557616,-1.25555 6.5721596,-1.715878 2.863361,-0.568551 5.752825,-0.990489 8.645058,-1.38009 0,0 -1.097795,1.037777 -1.097795,1.037777 v 0 c -2.841551,0.276484 -5.676134,0.647997 -8.472276,1.233695 -0.564865,0.125497 -1.132064,0.240863 -1.694586,0.376462 -1.048305,0.2527 -1.9196118,0.497147 -2.9376892,0.828394 -0.5494409,0.178766 -1.2811931,0.439864 -1.8307216,0.679069 -0.1475404,0.06424 -0.2884341,0.14276 -0.4326566,0.214151 0,0 1.2485068,-1.273585 1.2485068,-1.273585 z"
       inkscape:connector-curvature="0" />
    <path
       style="opacity:1;fill:#008080;fill-opacity:1;fill-rule:nonzero;stroke:none;stroke-width:3.78294778;stroke-miterlimit:4;stroke-dasharray:none;stroke-dashoffset:0;stroke-opacity:1"
       id="path2040"
       d="m 102.98867,18.027163 c -0.0896,0.113543 -0.18608,0.221944 -0.26882,0.340542 -0.55708,0.798238 -1.14214,2.019595 -1.02251,3.015233 0.0352,0.291779 0.17972,0.559617 0.26958,0.83943 0.21458,0.23938 0.39324,0.516617 0.64368,0.718177 0.64604,0.51997 1.54952,0.862708 2.31324,1.124229 1.4815,0.507297 3.02401,0.816488 4.55105,1.147344 1.44669,0.332107 3.25706,0.621514 3.98417,2.124163 0.3473,0.71734 0.22212,0.993169 0.15349,1.73815 -0.10281,0.249784 -0.1664,0.519729 -0.30833,0.749437 -0.46893,0.757637 -2.01744,1.336139 -2.45979,1.578167 0,0 1.33683,-1.318072 1.33683,-1.318072 v 0 c -0.30037,0.392127 -0.67616,0.736535 -0.90085,1.176384 -0.10402,0.203989 0.38742,-0.259766 0.52586,-0.442229 0.15995,-0.210923 0.23383,-0.475212 0.35069,-0.712826 0.1083,-0.703446 0.24601,-0.956524 -0.0514,-1.653465 -0.62801,-1.471262 -2.3881,-1.808484 -3.75615,-2.162063 -1.53509,-0.350226 -3.08842,-0.666864 -4.59266,-1.137988 -0.80083,-0.250796 -1.77881,-0.569745 -2.46879,-1.090869 -0.27652,-0.208842 -0.47486,-0.504906 -0.7123,-0.757352 -0.10259,-0.297532 -0.2606,-0.581423 -0.30785,-0.892588 -0.16411,-1.080948 0.44913,-2.425013 1.02401,-3.322455 0,0 1.69726,-1.061368 1.69726,-1.061368 z"
       inkscape:connector-curvature="0" />
    <path
       style="opacity:1;fill:#008080;fill-opacity:1;fill-rule:nonzero;stroke:none;stroke-width:3.78294778;stroke-miterlimit:4;stroke-dasharray:none;stroke-dashoffset:0;stroke-opacity:1"
       id="path2046"
       d="m 106.42478,22.278649 c -0.53064,1.080742 -1.06968,2.157181 -1.62,3.228218 -0.0708,0.134104 -0.14184,0.268169 -0.21272,0.402264 0,0 -1.59598,1.040627 -1.59598,1.040627 v 0 c 0.08,-0.138669 0.15989,-0.277393 0.23983,-0.416113 0.30521,-0.557563 0.60839,-1.117332 0.88879,-1.687934 0.1225,-0.249251 0.3965,-0.833555 0.50066,-1.11225 0.0438,-0.117272 0.0716,-0.239998 0.10731,-0.359983 0,0 1.69211,-1.094819 1.69211,-1.094819 z"
       inkscape:connector-curvature="0" />
    <path
       style="opacity:1;fill:#008080;fill-opacity:1;fill-rule:nonzero;stroke:none;stroke-width:3.78294778;stroke-miterlimit:4;stroke-dasharray:none;stroke-dashoffset:0;stroke-opacity:1"
       id="path2048"
       d="m 109.28515,22.735876 c -0.6509,1.442603 -1.31284,2.878993 -2.02042,4.29484 0,0 -1.45742,0.958217 -1.45742,0.958217 v 0 c 0.68269,-1.3417 1.33761,-2.702162 1.80577,-4.136265 0,0 1.67207,-1.116792 1.67207,-1.116792 z"
       inkscape:connector-curvature="0" />
    <path
       style="opacity:1;fill:#008080;fill-opacity:1;fill-rule:nonzero;stroke:none;stroke-width:3.70011115;stroke-miterlimit:4;stroke-dasharray:none;stroke-dashoffset:0;stroke-opacity:1"
       id="path2297"
       d="m 132.78515,54.905659 c -0.85316,1.152971 -1.62783,2.36209 -2.42527,3.553833 -0.73696,1.085068 -1.46991,2.173859 -2.26304,3.219057 -0.14512,0.194854 -0.29859,0.383138 -0.45436,0.569605 -0.0259,0.03256 -0.0421,0.0843 -0.083,0.09743 -0.0215,0.0069 -0.0144,-0.04242 -0.0215,-0.06353 -0.32413,0.202579 -0.64804,0.405135 -0.972,0.607706 0.10062,-0.08772 0.1994,-0.17831 0.30266,-0.263153 0.45442,-0.373463 0.90724,-0.749122 1.37037,-1.111721 0.15397,-0.120547 0.3182,-0.227491 0.48018,-0.337041 0.51256,-0.346663 1.04034,-0.669466 1.57014,-0.988692 0.38125,-0.22326 0.76194,-0.447389 1.14353,-0.670008 0.0259,-0.01459 0.38208,-0.226583 0.43714,-0.252237 0.0478,-0.02224 0.1,-0.03402 0.14991,-0.05112 0.0378,0.02152 0.0947,0.02515 0.11332,0.06444 0.0959,0.204683 -0.0506,0.415043 -0.13627,0.58195 -0.098,0.191771 -0.20562,0.378572 -0.31304,0.565385 -0.43566,0.75884 -0.61063,1.026202 -1.09547,1.811322 -1.53389,2.453129 -3.22182,4.804363 -4.97356,7.105328 0,0 -0.85098,0.536417 -0.85098,0.536417 v 0 c 0.26271,-0.333899 0.52977,-0.664704 0.78865,-1.00175 1.49628,-1.948324 2.90732,-3.964648 4.16472,-6.076099 0.45279,-0.785393 0.56674,-0.95784 0.95308,-1.710753 0.087,-0.169249 0.16879,-0.341038 0.24939,-0.513398 0.0447,-0.09553 0.0773,-0.196553 0.12623,-0.290015 0.0144,-0.02959 0.0474,-0.0476 0.0648,-0.07615 0.002,-0.0048 -0.0119,-6.07e-4 -0.0191,-9.08e-4 -0.18409,0.07471 -0.35334,0.173936 -0.52735,0.269848 -0.36558,0.20143 -0.72842,0.407296 -1.09009,0.615478 -0.52889,0.316992 -1.0538,0.638635 -1.55983,0.991616 -0.16712,0.116651 -0.57861,0.545689 -0.49483,0.359761 0.10062,-0.222972 0.37342,-0.316321 0.55104,-0.48445 0.0852,-0.0806 -0.18194,0.147517 -0.27308,0.221299 -0.42455,0.318062 -0.8342,0.656999 -1.27359,0.95415 -0.0215,0.01482 -0.0371,-0.0515 -0.0259,-0.07608 0.0191,-0.04425 0.0684,-0.06756 0.10117,-0.102922 0.10402,-0.113374 0.20561,-0.229117 0.30526,-0.346477 0.071,-0.08369 0.13892,-0.169728 0.20873,-0.254568 0.8626,-1.058502 1.64594,-2.177797 2.41568,-3.304908 0.75119,-1.125826 1.47926,-2.265807 2.19915,-3.411815 0,0 1.1552,-0.736784 1.1552,-0.736784 z"
       inkscape:connector-curvature="0" />
    <path
       style="opacity:1;fill:#008080;fill-opacity:1;fill-rule:nonzero;stroke:none;stroke-width:3.70011115;stroke-miterlimit:4;stroke-dasharray:none;stroke-dashoffset:0;stroke-opacity:1"
       id="path2299"
       d="m 134.42593,54.033955 c -0.11548,1.559627 -0.43756,3.093309 -0.76039,4.620257 -0.105,0.473595 -0.20824,0.94764 -0.31524,1.420804 -0.1,0.441338 -0.19534,0.88377 -0.30562,1.32266 -0.18864,0.752296 -0.44294,1.626386 -0.68337,2.367974 -0.27896,0.861102 -0.35557,1.030211 -0.6674,1.842291 -0.21685,0.566131 -0.48846,1.105758 -0.78163,1.634931 0,0 -1.05145,0.681257 -1.05145,0.681257 v 0 c 0.0884,-0.140965 0.1817,-0.278914 0.26531,-0.422892 0.29822,-0.514872 0.37732,-0.713292 0.64527,-1.275474 0.1217,-0.28957 0.25049,-0.576391 0.36557,-0.868669 0.77841,-1.975145 1.33986,-4.035514 1.70148,-6.126456 0.0761,-0.401589 0.16043,-0.801702 0.22834,-1.204761 0.14392,-0.855312 0.25567,-1.725447 0.26714,-2.594162 0.004,-0.270255 -0.008,-0.353246 -0.0294,-0.581627 0,0 1.12331,-0.816133 1.12331,-0.816133 z"
       inkscape:connector-curvature="0" />
    <path
       style="opacity:1;fill:#008080;fill-opacity:1;fill-rule:nonzero;stroke:none;stroke-width:3.70011115;stroke-miterlimit:4;stroke-dasharray:none;stroke-dashoffset:0;stroke-opacity:1"
       id="path2301"
       d="m 133.61167,60.210781 c 0.67234,-0.223091 1.33795,-0.469266 1.99869,-0.724882 0.28825,-0.108161 0.56813,-0.235549 0.84527,-0.369011 0,0 -0.89829,0.978635 -0.89829,0.978635 v 0 c -0.26974,0.115766 -0.54135,0.226487 -0.81742,0.326349 -0.69308,0.257379 -1.38914,0.507811 -2.06755,0.802595 0,0 0.9393,-1.013676 0.9393,-1.013676 z"
       inkscape:connector-curvature="0" />
    <path
       style="opacity:1;fill:#008080;fill-opacity:1;fill-rule:nonzero;stroke:none;stroke-width:3.70011115;stroke-miterlimit:4;stroke-dasharray:none;stroke-dashoffset:0;stroke-opacity:1"
       id="path2305"
       d="m 137.30265,53.84239 c -0.037,0.250128 -0.0383,0.276989 -0.0933,0.578798 -0.0875,0.478312 -0.18385,0.954949 -0.27383,1.432798 -0.13843,0.733984 -0.27308,1.468616 -0.40925,2.202943 -0.41645,2.318744 -0.82112,4.639804 -1.27569,6.95148 -0.12098,0.612417 -0.26087,1.220447 -0.41297,1.825668 0,0 -1.03285,0.706589 -1.03285,0.706589 v 0 c 0.20561,-0.626655 0.39327,-1.25874 0.53935,-1.90255 0.53814,-2.311745 0.97521,-4.645398 1.33999,-6.99074 0.17357,-1.123809 0.17046,-1.066313 0.31341,-2.134594 0.0559,-0.415737 0.12265,-0.918366 0.159,-1.34544 0.0215,-0.250869 0.0191,-0.299009 0.0215,-0.507438 0,0 1.12524,-0.817514 1.12524,-0.817514 z"
       inkscape:connector-curvature="0" />
    <path
       style="opacity:1;fill:#008080;fill-opacity:1;fill-rule:nonzero;stroke:none;stroke-width:3.70011115;stroke-miterlimit:4;stroke-dasharray:none;stroke-dashoffset:0;stroke-opacity:1"
       id="path2307"
       d="m 138.95375,53.789207 c -0.088,0.902983 -0.10018,1.811511 -0.0593,2.717543 0.0119,0.279285 0.037,0.558036 0.0528,0.837055 0.0947,1.180415 0.27564,2.350568 0.48552,3.515117 0,0 -1.03808,0.775924 -1.03808,0.775924 v 0 c -0.11428,-1.205974 -0.26492,-2.408223 -0.36371,-3.615694 -0.0571,-0.779283 -0.10998,-1.558245 -0.14633,-2.338803 -0.0144,-0.296674 -0.0191,-0.593775 -0.037,-0.890231 -0.004,-0.06175 -0.0119,-0.123177 -0.0191,-0.18479 0,0 1.1233,-0.816133 1.1233,-0.816133 z"
       inkscape:connector-curvature="0" />
    <path
       style="opacity:1;fill:#008080;fill-opacity:1;fill-rule:nonzero;stroke:none;stroke-width:3.70011115;stroke-miterlimit:4;stroke-dasharray:none;stroke-dashoffset:0;stroke-opacity:1"
       id="path2309"
       d="m 141.65652,55.006219 c -0.50647,1.296482 -0.97032,2.609385 -1.49068,3.900631 -0.15637,0.388666 -0.32046,0.774438 -0.48055,1.161647 -0.87204,2.093801 -1.8643,4.135018 -2.91153,6.146068 -0.27012,0.509766 -0.55236,1.012769 -0.84226,1.511475 0,0 -1.05569,0.681933 -1.05569,0.681933 v 0 c 0.33007,-0.517659 0.65131,-1.040507 0.95265,-1.575513 1.11716,-2.011586 2.15974,-4.06747 3.01954,-6.203817 0.15302,-0.381609 0.31153,-0.761192 0.45975,-1.144826 0.46973,-1.216816 0.89057,-2.455882 1.22426,-3.717101 0,0 1.12451,-0.760497 1.12451,-0.760497 z"
       inkscape:connector-curvature="0" />
    <path
       style="opacity:1;fill:#008080;fill-opacity:1;fill-rule:nonzero;stroke:none;stroke-width:3.70011115;stroke-miterlimit:4;stroke-dasharray:none;stroke-dashoffset:0;stroke-opacity:1"
       id="path2311"
       d="m 143.0993,56.542802 c -0.76311,1.66118 -1.53078,3.320087 -2.31873,4.969657 -0.62435,1.328058 -1.29939,2.630752 -2.02846,3.904119 -0.15995,0.269601 -0.33436,0.530165 -0.4951,0.79928 0,0 -1.15417,0.716964 -1.15417,0.716964 v 0 c 0.18267,-0.289699 0.38945,-0.563066 0.57799,-0.849057 0.81065,-1.295987 1.55364,-2.631941 2.21675,-4.009918 0.75508,-1.56834 1.50323,-3.146887 2.06632,-4.796515 0,0 1.1354,-0.73453 1.1354,-0.73453 z"
       inkscape:connector-curvature="0" />
    <path
       style="opacity:1;fill:#008080;fill-opacity:1;fill-rule:nonzero;stroke:none;stroke-width:3.70011115;stroke-miterlimit:4;stroke-dasharray:none;stroke-dashoffset:0;stroke-opacity:1"
       id="path2313"
       d="m 143.59099,56.305417 c -0.0781,0.951631 -0.11165,1.906488 -0.14991,2.86038 -0.0698,1.90137 -0.10998,3.803711 -0.1217,5.706263 -0.002,0.741299 0.004,1.482497 0.0215,2.223603 0,0 -1.05284,0.734418 -1.05284,0.734418 v 0 c 0.0443,-0.770588 0.0806,-1.541573 0.10785,-2.312985 0.0624,-1.896923 0.0945,-3.794763 0.0975,-5.692748 -0.002,-0.908602 0.002,-1.818214 -0.0425,-2.725961 0,0 1.13684,-0.793051 1.13684,-0.793051 z"
       inkscape:connector-curvature="0" />
    <path
       style="opacity:1;fill:#008080;fill-opacity:1;fill-rule:nonzero;stroke:none;stroke-width:3.70011115;stroke-miterlimit:4;stroke-dasharray:none;stroke-dashoffset:0;stroke-opacity:1"
       id="path2321"
       d="m 140.46081,62.556186 c 1.01708,-0.450399 2.06334,-0.830817 3.10723,-1.213545 0,0 -0.8234,0.853085 -0.8234,0.853085 v 0 c -0.65724,0.23892 -1.31251,0.480639 -1.95632,0.754526 -0.29511,0.125496 -0.69945,0.305785 -0.99159,0.459352 -0.0901,0.04742 -0.17597,0.103098 -0.26388,0.154617 0,0 0.92798,-1.008035 0.92798,-1.008035 z"
       inkscape:connector-curvature="0" />
    <path
       style="opacity:1;fill:#008080;fill-opacity:1;fill-rule:nonzero;stroke:none;stroke-width:3.70011115;stroke-miterlimit:4;stroke-dasharray:none;stroke-dashoffset:0;stroke-opacity:1"
       id="path2327"
       d="m 145.18763,56.458045 c -0.0332,1.789403 -0.0395,3.579085 -0.0559,5.368684 -0.0334,1.745146 -0.0822,3.490394 -0.16784,5.233816 -0.008,0.138455 -0.0144,0.276918 -0.0215,0.415393 0,0 -1.03422,0.736981 -1.03422,0.736981 v 0 c 0.0191,-0.145531 0.0368,-0.291088 0.055,-0.436598 0.20132,-1.777676 0.3112,-3.5657 0.35005,-5.354175 4.4e-4,-0.407081 0.008,-0.814193 9.6e-4,-1.221246 -0.008,-0.611464 -0.0387,-1.581437 -0.0698,-2.206757 -0.0215,-0.465232 -0.0526,-0.933589 -0.10182,-1.397257 -0.012,-0.110483 -0.0294,-0.220271 -0.0445,-0.330382 0,0 1.09081,-0.808442 1.09081,-0.808442 z"
       inkscape:connector-curvature="0" />
    <path
       style="opacity:1;fill:#008080;fill-opacity:1;fill-rule:nonzero;stroke:none;stroke-width:3.70011115;stroke-miterlimit:4;stroke-dasharray:none;stroke-dashoffset:0;stroke-opacity:1"
       id="path2341"
       d="m 144.26366,59.596938 c 0.6216,-0.62845 1.20105,-1.298215 1.78263,-1.963645 0.41752,-0.487062 0.84577,-0.974364 1.13705,-1.55004 0,0 1.12309,-0.738401 1.12309,-0.738401 v 0 c -0.0885,0.175825 -0.10998,0.229308 -0.22307,0.403158 -0.28711,0.440013 -0.64327,0.831159 -0.98286,1.229908 -0.55433,0.62873 -1.10917,1.256945 -1.65382,1.894142 0,0 -1.18286,0.724878 -1.18286,0.724878 z"
       inkscape:connector-curvature="0" />
    <path
       style="opacity:1;fill:#008080;fill-opacity:1;fill-rule:nonzero;stroke:none;stroke-width:3.70011115;stroke-miterlimit:4;stroke-dasharray:none;stroke-dashoffset:0;stroke-opacity:1"
       id="path2343"
       d="m 148.29687,55.274037 c -0.20299,1.762998 -0.29896,3.535046 -0.39216,5.306464 -0.15922,3.225568 -0.17572,6.455057 -0.22785,9.683325 0,0 -0.81497,0.587121 -0.81497,0.587121 v 0 c 0.0259,-0.42493 0.0583,-0.849596 0.081,-1.274788 0.14896,-2.815131 0.1798,-5.635545 0.21088,-8.453827 0.008,-0.899905 0.0143,-1.79983 0.0259,-2.699721 0.008,-0.699371 0.0332,-1.400748 0.0144,-2.100292 -0.002,-0.07978 -0.008,-0.159376 -0.012,-0.239064 0,0 1.11382,-0.809221 1.11382,-0.809221 z"
       inkscape:connector-curvature="0" />
    <path
       style="opacity:1;fill:#008080;fill-opacity:1;fill-rule:nonzero;stroke:none;stroke-width:3.21192932;stroke-miterlimit:4;stroke-dasharray:none;stroke-dashoffset:0;stroke-opacity:1"
       id="path2353"
       d="m 147.34288,59.570309 c 0.44545,-0.580056 1.02459,-1.041677 1.57575,-1.516695 0.38006,-0.314933 0.76018,-0.629856 1.14026,-0.94479 0.0968,-0.07818 0.19533,-0.155407 0.29161,-0.234593 0.0837,-0.06886 0.333,-0.278034 0.24903,-0.209607 -0.219,0.177976 -0.43105,0.364711 -0.65354,0.538431 -0.0542,0.04234 0.0997,-0.09456 0.14775,-0.143596 0.0421,-0.04291 0.082,-0.0882 0.1229,-0.132263 0,0 0.98776,-0.611859 0.98776,-0.611859 v 0 c -0.40432,0.454693 -0.85703,0.786802 -1.34001,1.193971 -0.0789,0.06653 -0.15923,0.131283 -0.23959,0.196075 -0.0937,0.07572 -0.37075,0.308282 -0.28336,0.225244 0.16114,-0.153087 0.3368,-0.290555 0.50521,-0.435843 -0.31866,0.27237 -0.34368,0.291033 -0.65849,0.570571 -0.29906,0.265508 -0.60642,0.530895 -0.84008,0.858484 0,0 -1.00503,0.646527 -1.00503,0.646527 z"
       inkscape:connector-curvature="0" />
    <path
       style="opacity:1;fill:#008080;fill-opacity:1;fill-rule:nonzero;stroke:none;stroke-width:3.70011115;stroke-miterlimit:4;stroke-dasharray:none;stroke-dashoffset:0;stroke-opacity:1"
       id="path2343-6"
       d="m 151.32095,56.104343 c -0.18147,1.76537 -0.25532,3.538457 -0.32673,5.310894 -0.11954,3.22728 -0.0961,6.45673 -0.10884,9.685395 0,0 -0.80771,0.597105 -0.80771,0.597105 v 0 c 0.0215,-0.425216 0.048,-0.850247 0.0656,-1.275691 0.11429,-2.816749 0.11022,-5.637332 0.10687,-8.455778 -0.004,-0.899925 -0.008,-1.79988 -0.008,-2.699838 -0.001,-0.699406 0.0143,-1.401052 -0.012,-2.100314 -0.002,-0.07974 -0.0119,-0.159257 -0.0144,-0.23892 0,0 1.10372,-0.822867 1.10372,-0.822867 z"
       inkscape:connector-curvature="0" />
  </g>
</svg>
